<svg xmlns="http://www.w3.org/2000/svg" width="703.617" height="167.405" viewBox="0 0 703.617 167.405">
  <g id="Group_1" data-name="Group 1" transform="translate(-608.921 -490.574)">
    <path id="Path_1" data-name="Path 1" d="M81.432-39.092q9.86-3.364,19.43-6.5t18.966-6.5q6.844-2.32,13.514-4.524t13.514-4.524q4.872-1.624,8.816-2.9t7.772-2.2a2.34,2.34,0,0,1,1.508,0,1.118,1.118,0,0,1,.464.58q.348,1.16-.638,1.276a14.737,14.737,0,0,1-1.682.116,18.735,18.735,0,0,0-2.146.522q-1.914.522-3.19.986-10.208,3.132-19.024,6.032T121.22-50.808q-11.136,3.828-21.982,7.54T78.416-35.844q1.276,1.624,2.61,3.248T83.52-29.58q1.856,2.2,3.654,4.118t3.654,3.77Q93.5-19.024,96.164-16.3T101.5-10.9q1.392,1.392,2.784,2.726t2.784,2.726q1.856,1.74,3.712,3.538t3.712,3.538q3.48,3.6,7.192,6.844l8,7.308,1.856,1.856a.831.831,0,0,1-.116.928.8.8,0,0,1-.928.116,22.954,22.954,0,0,1-1.856-1.508q-1.044-.928-1.74-1.508l-3.712-3.48L119.48,8.7q-4.06-3.6-7.888-7.54l-9.048-8.7q-3.248-3.132-6.38-6.206t-6.148-6.322q-1.972-1.972-3.886-4.06T82.36-28.3l-1.45-1.74q-.87-1.044-1.682-2.03t-1.45-1.74l-.638-.754q-.928.928-1.914,1.856t-1.914,1.856l-6.96,6.96q-3.48,3.48-7.076,6.96-2.32,2.32-4.524,4.466T50.228-8Q48.6-6.38,47.5-5.22T45.356-3.132Q43.732-1.508,42.05-.058T38.744,3.016Q37.12,4.64,35.38,6.206t-3.6,3.19L29.7,11.136a1.349,1.349,0,0,0-.348.232A1.35,1.35,0,0,1,29,11.6a.9.9,0,0,1-1.044-.232.642.642,0,0,1-.116-.928q.232-.58.348-.58a4.608,4.608,0,0,1,.58-.7l.7-.7Q31.2,6.844,33,5.336T36.54,2.32q3.016-2.552,5.568-4.988t5.22-4.872a13.276,13.276,0,0,0,2.03-3.016,2.851,2.851,0,0,0-.522-3.364,3.611,3.611,0,0,0-1.276-.87,10.016,10.016,0,0,0-3.248-.754,50.6,50.6,0,0,0-6.438-.058q-3.422.174-6.9.58t-6.844,1.044q-3.364.638-6.38,1.334-2.668.58-5.22,1.218t-5.22,1.334Q1.74-8.584-3.6-6.844T-14.268-3.132Q-18.444-1.624-22.62-.058t-8.236,3.19q-3.48,1.392-6.9,2.784T-44.544,8.7q-1.972.928-3.77,1.682t-3.654,1.566q-1.276.58-1.508-.232-.348-.7.7-1.276l2.552-1.16,2.552-1.16Q-38.86,4.292-29.928.812q2.9-1.16,5.8-2.2t5.8-2.2q2.9-1.16,5.742-2.2T-6.844-8Q-5.8-8.352-2.61-9.512t7.424-2.726Q9.048-13.8,13.92-15.544t9.338-3.364q4.466-1.624,8-2.9t5.162-1.856q6.5-2.32,12.934-4.524T62.408-32.6q3.712-1.276,7.714-2.61t7.714-2.61q.7-.7,1.682-1.74t2.2-2.262q1.218-1.218,2.378-2.494t2.2-2.32q1.74-1.972,3.48-3.886t3.48-3.886q1.276-1.392,2.61-3.074t2.494-3.364a24.428,24.428,0,0,0,1.914-3.248,11.354,11.354,0,0,0,.986-2.842,1.958,1.958,0,0,0-.406-1.45A3.943,3.943,0,0,0,98.6-69.6a20.98,20.98,0,0,0-3.19-.232,27.856,27.856,0,0,0-3.19.174q-1.508.174-2.726.348t-1.8.29Q78.88-67.4,70.876-65.134T55.1-60.2A216.282,216.282,0,0,0,33.234-51.33q-10.15,4.814-20.242,9.8L9.744-39.9Q8.12-39.092,6.5-38.4q-1.276.7-1.624.348-.58-.812.812-1.624l4.872-2.552,4.872-2.552Q26.8-50.692,37.7-55.274t22.156-8.294Q64.38-64.96,68.9-66.294t9.164-2.494q4.408-.928,8.352-1.682a61.161,61.161,0,0,1,8-.986,14.532,14.532,0,0,1,4.93.29,6.258,6.258,0,0,1,2.726,1.45,3.239,3.239,0,0,1,.87,1.972,8.756,8.756,0,0,1-.174,2.2,23.336,23.336,0,0,1-4.35,7.83q-2.958,3.538-5.742,6.67-1.044,1.276-2.9,3.248t-3.712,3.886q-1.856,1.914-3.19,3.364A10.136,10.136,0,0,1,81.432-39.092ZM51.5-11.832,53.07-13.4q1.566-1.566,4-3.886t5.278-5.162q2.842-2.842,5.452-5.394t4.582-4.524l2.552-2.552q-.58.116-5.22,1.74T58.29-29.232q-6.786,2.32-14.558,5.046l-14.558,5.1q-6.786,2.378-11.484,4t-5.278,1.856q.348-.116,1.334-.348t2.2-.464q1.218-.232,2.494-.522t2.088-.406a75.471,75.471,0,0,1,8.294-1.45q4.35-.522,9.222-.87a27.275,27.275,0,0,1,8.294.58,10.359,10.359,0,0,1,3.886,1.856A3.672,3.672,0,0,1,51.5-11.832Zm77.372-21.924a15.192,15.192,0,0,1,1.044,1.682q.464.87.812,1.682a7.975,7.975,0,0,1,1.044,3.712,8.457,8.457,0,0,1-.7,3.364,13.293,13.293,0,0,1-1.856,3.074q-1.16,1.45-2.32,2.842-2.32,2.668-4.7,5.278t-4.7,5.278q-.464.58-1.392,1.682T114.2-2.9A23.963,23.963,0,0,0,112.52-.7a3.386,3.386,0,0,0-.7,1.508A19.824,19.824,0,0,0,114.376,0a11.522,11.522,0,0,0,2.32-1.276q3.712-2.32,6.728-4.64,4.756-3.364,9.338-6.728t9.338-6.728q4.872-3.6,9.686-7.192t9.686-7.192a8.183,8.183,0,0,1,.812-.58l.7-.464q1.508.464.87,1.16a11.387,11.387,0,0,1-1.566,1.392q-9.048,6.844-18.1,13.456T125.976-5.568q-1.972,1.276-3.77,2.61t-3.77,2.61a19.093,19.093,0,0,1-3.422,1.856,11.158,11.158,0,0,1-3.19.928,1.385,1.385,0,0,1-1.45-.522A1.939,1.939,0,0,1,110.2.348a7.39,7.39,0,0,1,1.74-3.364q1.508-1.856,2.784-3.248,2.436-2.668,4.814-5.452t4.814-5.452q1.044-1.16,2.262-2.552a19.783,19.783,0,0,0,2.088-2.842,10.018,10.018,0,0,0,1.218-3.074,5.268,5.268,0,0,0-.348-3.248q-.464-.928-.928-1.8t-.928-1.8a26.05,26.05,0,0,1-1.624-3.074,15.687,15.687,0,0,1-1.044-3.306,13.845,13.845,0,0,1-.29-4.176,11.767,11.767,0,0,1,1.1-4.06,13.846,13.846,0,0,1,5.916-6.09,25.832,25.832,0,0,1,8-2.842q3.48-.58,4.93.464a4.432,4.432,0,0,1,1.8,2.2,5.436,5.436,0,0,1-.7,4.524,26.4,26.4,0,0,1-3.6,4.814,44.521,44.521,0,0,1-4.64,4.35q-2.436,1.972-3.944,3.016a15.341,15.341,0,0,1-2.494,1.624Q129.8-34.336,128.876-33.756Zm12.76-20.764a11.333,11.333,0,0,0-2.378.29,15.851,15.851,0,0,0-2.726.87,24.943,24.943,0,0,0-6.09,3.306,9.76,9.76,0,0,0-3.654,5.278,11.253,11.253,0,0,0-.116,4.814,21.425,21.425,0,0,0,1.508,4.7q1.392-.812,2.552-1.566t2.2-1.508q1.044-.754,2.2-1.682t2.552-2.2q2.088-1.972,4.234-4.292a12.844,12.844,0,0,0,2.958-4.988,2.633,2.633,0,0,0-.464-2.088Q143.724-54.636,141.636-54.52ZM182.7-36.772a1.342,1.342,0,0,1,.986.406q.406.406-.174,1.1a8.97,8.97,0,0,1-1.334,1.624q-1.1,1.16-1.682,1.74-1.508,1.392-2.726,2.61T175.392-26.8q-1.16,1.276-2.436,2.668T170.056-21q-2.088,2.32-4.234,4.756T161.7-11.252a21.142,21.142,0,0,0-1.74,1.972,21.142,21.142,0,0,1-1.74,1.972,12.525,12.525,0,0,0-1.276,1.972q-.232.7-.812.7a1,1,0,0,1-.812-1.044,9.988,9.988,0,0,1,.7-1.508q.7-.928,1.392-1.8a13.21,13.21,0,0,1,1.624-1.682q3.364-4.176,6.9-8.12t7.25-8q.7-.812,1.74-1.914t2.088-2.146l1.8-1.8.754-.754q-2.2,1.044-3.944,1.856t-3.306,1.566q-1.566.754-3.19,1.624t-3.712,1.914l-1.276.638-1.74.87a19.32,19.32,0,0,1-1.856.812,8.907,8.907,0,0,1-1.624.464q-1.856,0-2.088-1.16a3.118,3.118,0,0,1,.29-1.624,13.907,13.907,0,0,1,.87-1.856,34.778,34.778,0,0,1,2.436-3.48,52.6,52.6,0,0,1,4.64-5.22.732.732,0,0,1,.754-.232,1.443,1.443,0,0,1,.638.348q.464.7-.464,1.624-.58.7-1.334,1.508t-1.334,1.508q-.7.812-1.624,1.972t-1.74,2.2a20.769,20.769,0,0,0-1.276,1.8q-.464.754-.232.87.116.116.87-.116a11.172,11.172,0,0,0,1.682-.7q.928-.464,1.972-.928t1.74-.812q3.828-1.972,7.482-3.886t7.714-3.886a7.5,7.5,0,0,0,1.508-.522A9.74,9.74,0,0,1,182.7-36.772Zm.232,11.716q1.624-1.16,3.944-2.726t4.64-3.074q2.32-1.508,4.35-2.61A13.416,13.416,0,0,1,198.94-34.8a1.045,1.045,0,0,1,1.218.29,1.234,1.234,0,0,1,.174,1.218,11.678,11.678,0,0,1-1.044,2.262q-.812,1.45-1.392,2.726-.232.464-.812,1.74t-.812,1.856a7.488,7.488,0,0,0,2.436-.638q1.624-.638,2.784-1.1,2.668-1.276,5.1-2.61t4.872-2.842q.812-.464,1.624-.986t1.508-.986l1.624-.928q1.276.116,1.044.812a2.518,2.518,0,0,1-.464.928q-1.276.7-2.03,1.16t-1.45.928q-.7.464-1.508.928t-1.972,1.16q-1.624.928-3.538,1.972T202.594-25a31.859,31.859,0,0,1-3.48,1.45,9.021,9.021,0,0,1-2.842.58,1.513,1.513,0,0,1-1.508-.522,1.8,1.8,0,0,1-.232-1.566,22.082,22.082,0,0,1,1.682-4.06q1.1-2.088,2.03-3.712l-.638.348a15.611,15.611,0,0,0-1.392.87q-.754.522-1.624,1.044l-1.45.87q-3.364,1.972-6.5,4.118t-6.264,4.466q-.58.348-1.218.7a.79.79,0,0,1-1.1-.232,1.2,1.2,0,0,1,.116-1.624q.7-.812,1.16-1.392,1.624-1.856,3.248-3.6t3.364-3.6q1.972-2.088,4.06-4.176l4.176-4.176q.464-.464,1.044-.986t1.044-.29a.825.825,0,0,1,.174,1.16,7.785,7.785,0,0,1-.87,1.044q-1.624,1.624-3.074,3.132t-2.958,3.132q-1.624,1.624-3.306,3.48T182.932-25.056Zm44.312-8q-1.392.812-3.538,1.972t-4.35,2.436q-.464.232-1.334.7t-1.856.87a17.929,17.929,0,0,1-2.03.7,7.032,7.032,0,0,1-1.856.29A1.62,1.62,0,0,1,211-26.622a1.334,1.334,0,0,1-.232-1.334,6.259,6.259,0,0,1,.812-1.972q.58-.928.928-1.392a21.422,21.422,0,0,1,7.192-5.568,7.3,7.3,0,0,1,2.784-.87,5.2,5.2,0,0,1,1.856.174A1.973,1.973,0,0,1,225.62-35.5a3.682,3.682,0,0,1-.232,1.044,1.313,1.313,0,0,1-.464.464q-.348.232-.58,0-.58-.232-.464-.638A3.154,3.154,0,0,0,224-35.5a.548.548,0,0,0-.464-.58,2.73,2.73,0,0,0-1.334.116q-.754.232-1.682.58a18.124,18.124,0,0,0-6.728,5.1,6.241,6.241,0,0,0-.812,1.1,6.262,6.262,0,0,0-.7,1.566,10.583,10.583,0,0,0,2.784-.812q.928-.464,1.8-.87t1.8-.87q2.9-1.508,5.684-3.19t5.452-3.306q.464-.232.87-.464t.87-.464a.82.82,0,0,1,1.16.348,1.054,1.054,0,0,1,0,1.16l-.812.812q-1.044,1.16-2.088,2.2t-2.088,2.2q-1.276,1.392-2.436,2.9a27.558,27.558,0,0,0-2.088,3.132,15.841,15.841,0,0,0-1.044,1.914,11.752,11.752,0,0,0-.812,2.146.513.513,0,0,0,.58.58,5.748,5.748,0,0,0,1.74-.58q.928-.464,1.508-.812,1.972-1.276,3.654-2.32t3.538-2.32q2.784-1.856,6.032-3.944t6.032-3.944a.564.564,0,0,0,.29-.116,3.794,3.794,0,0,1,.406-.232,1.818,1.818,0,0,0,.464-.348,1.756,1.756,0,0,1,.87.7q.29.464-.29.928a2.208,2.208,0,0,1-.58.406,10.972,10.972,0,0,0-1.044.638q-4.06,2.668-8.12,5.278t-8.12,5.278a11.433,11.433,0,0,1-1.508.928q-.7.348-1.624.928a9.391,9.391,0,0,1-1.508.7,8.157,8.157,0,0,1-1.856.464,1.869,1.869,0,0,1-1.682-.58,1.837,1.837,0,0,1-.406-1.74,8.771,8.771,0,0,1,1.16-3.422q.928-1.566,1.508-2.494Q224.46-29.7,227.244-33.06ZM225.388-.812a2.392,2.392,0,0,1-1.972-2.436,7.953,7.953,0,0,1,.116-1.508,6.614,6.614,0,0,1,.348-1.16,24.554,24.554,0,0,1,1.334-3.074,30.438,30.438,0,0,1,1.682-2.842,64.223,64.223,0,0,1,3.77-5.394q2.03-2.61,4.118-5.162A288.463,288.463,0,0,1,254.5-44.2q4.524-4.64,9.106-9.164t9.222-9.164q3.6-3.6,7.134-7.25L287.1-77.14q.58-.464.928-.7t.812.232q.348.348,0,.87a7.389,7.389,0,0,1-.928,1.1q-3.016,3.364-6.148,6.612t-6.38,6.5q-4.64,4.64-9.28,9.164t-9.28,9.28q-5.22,5.22-10.15,10.556T236.988-22.5q-2.088,2.668-4.118,5.278t-3.886,5.394l-1.856,3.016a16.648,16.648,0,0,0-1.508,3.132,2.864,2.864,0,0,0-.29.928,7.826,7.826,0,0,1-.174.928,1.132,1.132,0,0,0,1.16,1.392,12.028,12.028,0,0,0,5.568-1.218q2.9-1.334,5.22-2.494,3.828-2.088,7.482-4.35t7.366-4.7q4.756-3.132,9.338-6.5T270.4-28.42q1.972-1.276,3.77-2.668t3.654-2.784a4.609,4.609,0,0,1,.7-.58,1.456,1.456,0,0,1,.58-.348q1.276.232.986.87a3.143,3.143,0,0,1-.522.87q-1.856,1.392-3.944,3.016t-3.944,3.016q-4.06,2.9-8.062,5.742t-8.062,5.742q-3.364,2.32-6.728,4.466t-6.554,4.06q-3.19,1.914-6.148,3.364a40.628,40.628,0,0,1-5.51,2.262q-.928.232-2.436.522A7.549,7.549,0,0,1,225.388-.812Zm157.76-38.28q9.86-3.364,19.43-6.5t18.966-6.5q6.844-2.32,13.514-4.524t13.514-4.524q4.872-1.624,8.816-2.9t7.772-2.2a2.34,2.34,0,0,1,1.508,0,1.118,1.118,0,0,1,.464.58q.348,1.16-.638,1.276a14.737,14.737,0,0,1-1.682.116,18.733,18.733,0,0,0-2.146.522q-1.914.522-3.19.986-10.208,3.132-19.024,6.032t-17.516,5.916q-11.136,3.828-21.982,7.54t-20.822,7.424q1.276,1.624,2.61,3.248t2.494,3.016q1.856,2.2,3.654,4.118t3.654,3.77q2.668,2.668,5.336,5.394t5.336,5.394Q404.608-9.512,406-8.178t2.784,2.726q1.856,1.74,3.712,3.538t3.712,3.538q3.48,3.6,7.192,6.844l8,7.308,1.856,1.856a.831.831,0,0,1-.116.928.8.8,0,0,1-.928.116,22.959,22.959,0,0,1-1.856-1.508q-1.044-.928-1.74-1.508l-3.712-3.48L421.2,8.7q-4.06-3.6-7.888-7.54l-9.048-8.7q-3.248-3.132-6.38-6.206t-6.148-6.322q-1.972-1.972-3.886-4.06t-3.77-4.176l-1.45-1.74q-.87-1.044-1.682-2.03t-1.45-1.74l-.638-.754q-.928.928-1.914,1.856t-1.914,1.856l-6.96,6.96q-3.48,3.48-7.076,6.96-2.32,2.32-4.524,4.466T351.944-8Q350.32-6.38,349.218-5.22t-2.146,2.088q-1.624,1.624-3.306,3.074T340.46,3.016q-1.624,1.624-3.364,3.19T333.5,9.4l-2.088,1.74a1.349,1.349,0,0,0-.348.232,1.349,1.349,0,0,1-.348.232.9.9,0,0,1-1.044-.232.642.642,0,0,1-.116-.928q.232-.58.348-.58a4.607,4.607,0,0,1,.58-.7l.7-.7q1.74-1.624,3.538-3.132t3.538-3.016q3.016-2.552,5.568-4.988t5.22-4.872a13.275,13.275,0,0,0,2.03-3.016,2.851,2.851,0,0,0-.522-3.364,3.611,3.611,0,0,0-1.276-.87,10.016,10.016,0,0,0-3.248-.754,50.6,50.6,0,0,0-6.438-.058q-3.422.174-6.9.58t-6.844,1.044q-3.364.638-6.38,1.334-2.668.58-5.22,1.218t-5.22,1.334q-5.568,1.508-10.9,3.248T287.448-3.132Q283.272-1.624,279.1-.058t-8.236,3.19q-3.48,1.392-6.9,2.784T257.172,8.7q-1.972.928-3.77,1.682t-3.654,1.566q-1.276.58-1.508-.232-.348-.7.7-1.276l2.552-1.16,2.552-1.16q8.816-3.828,17.748-7.308,2.9-1.16,5.8-2.2t5.8-2.2q2.9-1.16,5.742-2.2T294.872-8q1.044-.348,4.234-1.508t7.424-2.726q4.234-1.566,9.106-3.306t9.338-3.364q4.466-1.624,8-2.9t5.162-1.856q6.5-2.32,12.934-4.524t13.05-4.408q3.712-1.276,7.714-2.61t7.714-2.61q.7-.7,1.682-1.74t2.2-2.262q1.218-1.218,2.378-2.494t2.2-2.32q1.74-1.972,3.48-3.886t3.48-3.886q1.276-1.392,2.61-3.074t2.494-3.364A24.43,24.43,0,0,0,402-64.09a11.353,11.353,0,0,0,.986-2.842,1.958,1.958,0,0,0-.406-1.45,3.943,3.943,0,0,0-2.262-1.218,20.98,20.98,0,0,0-3.19-.232,27.856,27.856,0,0,0-3.19.174q-1.508.174-2.726.348t-1.8.29q-8.816,1.624-16.82,3.886T356.816-60.2A216.281,216.281,0,0,0,334.95-51.33q-10.15,4.814-20.242,9.8L311.46-39.9q-1.624.812-3.248,1.508-1.276.7-1.624.348-.58-.812.812-1.624l4.872-2.552,4.872-2.552q11.368-5.916,22.272-10.5t22.156-8.294q4.524-1.392,9.048-2.726t9.164-2.494q4.408-.928,8.352-1.682a61.161,61.161,0,0,1,8-.986,14.532,14.532,0,0,1,4.93.29,6.258,6.258,0,0,1,2.726,1.45,3.239,3.239,0,0,1,.87,1.972,8.756,8.756,0,0,1-.174,2.2,23.336,23.336,0,0,1-4.35,7.83q-2.958,3.538-5.742,6.67-1.044,1.276-2.9,3.248t-3.712,3.886q-1.856,1.914-3.19,3.364A10.135,10.135,0,0,1,383.148-39.092ZM353.22-11.832l1.566-1.566q1.566-1.566,4-3.886t5.278-5.162q2.842-2.842,5.452-5.394t4.582-4.524l2.552-2.552q-.58.116-5.22,1.74t-11.426,3.944q-6.786,2.32-14.558,5.046l-14.558,5.1q-6.786,2.378-11.484,4t-5.278,1.856q.348-.116,1.334-.348t2.2-.464q1.218-.232,2.494-.522t2.088-.406a75.471,75.471,0,0,1,8.294-1.45q4.35-.522,9.222-.87a27.275,27.275,0,0,1,8.294.58,10.359,10.359,0,0,1,3.886,1.856A3.672,3.672,0,0,1,353.22-11.832Zm94.772-24.94a1.342,1.342,0,0,1,.986.406q.406.406-.174,1.1a8.972,8.972,0,0,1-1.334,1.624q-1.1,1.16-1.682,1.74-1.508,1.392-2.726,2.61T440.684-26.8q-1.16,1.276-2.436,2.668T435.348-21q-2.088,2.32-4.234,4.756T427-11.252a21.138,21.138,0,0,0-1.74,1.972,21.142,21.142,0,0,1-1.74,1.972,12.528,12.528,0,0,0-1.276,1.972q-.232.7-.812.7a1,1,0,0,1-.812-1.044,9.989,9.989,0,0,1,.7-1.508q.7-.928,1.392-1.8a13.208,13.208,0,0,1,1.624-1.682q3.364-4.176,6.9-8.12t7.25-8q.7-.812,1.74-1.914t2.088-2.146l1.8-1.8.754-.754q-2.2,1.044-3.944,1.856t-3.306,1.566q-1.566.754-3.19,1.624t-3.712,1.914l-1.276.638-1.74.87a19.32,19.32,0,0,1-1.856.812,8.908,8.908,0,0,1-1.624.464q-1.856,0-2.088-1.16a3.118,3.118,0,0,1,.29-1.624,13.9,13.9,0,0,1,.87-1.856,34.781,34.781,0,0,1,2.436-3.48A52.593,52.593,0,0,1,430.36-37a.732.732,0,0,1,.754-.232,1.443,1.443,0,0,1,.638.348q.464.7-.464,1.624-.58.7-1.334,1.508t-1.334,1.508q-.7.812-1.624,1.972t-1.74,2.2a20.763,20.763,0,0,0-1.276,1.8q-.464.754-.232.87.116.116.87-.116a11.173,11.173,0,0,0,1.682-.7q.928-.464,1.972-.928t1.74-.812q3.828-1.972,7.482-3.886t7.714-3.886a7.5,7.5,0,0,0,1.508-.522A9.738,9.738,0,0,1,447.992-36.772ZM445.208-21a17.465,17.465,0,0,1,2.03-1.45q1.682-1.1,3.944-2.552t4.93-3.016q2.668-1.566,4.988-3.016t4.06-2.436q1.74-.986,2.2-1.218a1.848,1.848,0,0,1,1.566,0q.754.348.058,1.508-1.044,1.508-1.914,2.668t-1.8,2.436q-.464.58-1.1,1.566a9.952,9.952,0,0,0-.87,1.566q.7-.232,2.436-1.044t3.016-1.392q2.088-1.16,4.234-2.262t4.234-2.262q.464-.232,1.218-.58a6.134,6.134,0,0,1,1.334-.464,1.1,1.1,0,0,1,1.044.348,1.051,1.051,0,0,1,.232,1.16,12.53,12.53,0,0,1-.928,1.682,7.832,7.832,0,0,0-1.044,2.494,6.124,6.124,0,0,0,2.088-.58,16.135,16.135,0,0,0,2.32-1.16q2.668-1.392,5.51-2.842t5.51-2.958q1.276.232.986.87a3.142,3.142,0,0,1-.522.87Q492.3-31.668,489.4-30.1t-5.568,2.958a20.857,20.857,0,0,1-2.436.986,8.3,8.3,0,0,1-2.668.522q-1.624,0-1.392-1.624a6.527,6.527,0,0,1,.464-1.856,9.35,9.35,0,0,1,.812-1.508l-.986.522q-.986.522-2.32,1.218t-2.726,1.45q-1.392.754-2.436,1.218-1.392.7-2.262,1.16t-2.262,1.044q-.58.232-1.334.522a8.359,8.359,0,0,1-1.334.406,1.649,1.649,0,0,1-1.45-.406,1.273,1.273,0,0,1-.174-1.45,12.283,12.283,0,0,1,.986-1.8q.638-.986,1.334-2.03t1.392-1.914a13.928,13.928,0,0,0,1.044-1.45q-5.916,3.712-11.658,7.308T443-17.4q-.232.116-.754.406a.934.934,0,0,1-1.1-.174,1.159,1.159,0,0,1-.29-.7,2.313,2.313,0,0,1,.638-1.392q1.276-1.508,2.436-3.016t2.436-2.9q4.06-4.872,8.468-9.454t8.816-9.222q1.276-1.276,2.494-2.668t2.494-2.668q.58-.58.87-.58a1.4,1.4,0,0,1,.754.348q.348.348-.116,1.044a103.259,103.259,0,0,1-7.076,7.714Q459.36-37,455.88-33.176q-1.392,1.508-3.132,3.48t-3.364,3.77q-1.624,1.8-2.784,3.19T445.208-21ZM497.06-34.8a32.639,32.639,0,0,1,4.118-1.8,10.264,10.264,0,0,1,4.118-.754,2.444,2.444,0,0,1,2.552,2.668,5.677,5.677,0,0,1-.58,2.32,17.109,17.109,0,0,1-1.45,2.552,28.521,28.521,0,0,1-1.914,2.494q-1.044,1.218-1.856,2.146a14.515,14.515,0,0,0,1.624-.638q1.508-.638,3.654-1.508t4.466-1.856q2.32-.986,3.944-1.682,1.972-.928,3.422-1.508t2.726-1.16a1.575,1.575,0,0,0,.522-.232,7.984,7.984,0,0,1,.986-.464,5.8,5.8,0,0,1,1.392-.58q1.044.232,1.044.812a.822.822,0,0,1-.58.812q-6.264,2.668-12.412,5.394T500.424-22.62a6.641,6.641,0,0,0-2.9,1.74q-2.668,2.32-5.162,4.234a22.619,22.619,0,0,1-5.394,3.074,15.076,15.076,0,0,1-2.726.638,6.064,6.064,0,0,1-3.422-.406,3.009,3.009,0,0,1-1.972-3.132,3.354,3.354,0,0,1,2.32-3.016,14.067,14.067,0,0,1,3.77-.812,34.518,34.518,0,0,0,3.77-.464q2.2-.464,4.466-1.16t4.234-1.392a1.826,1.826,0,0,0,.7-.464q1.624-1.508,3.016-3.016a37.314,37.314,0,0,0,2.668-3.248q.812-1.16,1.45-2.2a6.706,6.706,0,0,0,.87-2.32q.232-1.16-.7-1.16a6.335,6.335,0,0,0-2.726.406q-1.45.522-2.146.754a32.439,32.439,0,0,0-7.308,4.06q-1.16.928-1.972,1.624t-1.74,1.508a1.363,1.363,0,0,1-.812.406.8.8,0,0,1-.7-.174.716.716,0,0,1-.232-.928,3.062,3.062,0,0,1,.928-1.16q.7-.58,1.276-1.044a7.571,7.571,0,0,0,.812-.7l.7-.7q3.828-4.06,7.656-8.062t7.772-8.062q3.364-3.48,6.844-6.9t7.192-6.67q1.276-1.16,2.2-1.972t2.088-1.74q.812-.7,1.392-.116t-.232,1.276q-.7.7-1.334,1.218t-1.218,1.1q-5.916,5.22-11.252,10.5T501.932-40.252q-1.16,1.276-2.552,2.842Zm-2.2,14.152q-1.74.58-4.292,1.16a43.822,43.822,0,0,1-4.524.812q-.812.116-2.262.29a7.3,7.3,0,0,0-2.378.638,1.643,1.643,0,0,0-.812,1.334,1.705,1.705,0,0,0,.7,1.334,4.76,4.76,0,0,0,3.538.464,14.681,14.681,0,0,0,3.306-1.276,24.934,24.934,0,0,0,3.6-2.2A37.112,37.112,0,0,0,494.856-20.648Zm24.592-5.568q1.276-.928,2.9-2.088a30.378,30.378,0,0,1,3.364-2.088q1.74-.928,3.306-1.624a6.742,6.742,0,0,1,2.61-.7q1.392,0,1.392,1.508a17.1,17.1,0,0,1-.348,2.03,8.346,8.346,0,0,0-.232,1.914.82.82,0,0,0,.928.928,11.138,11.138,0,0,0,2.9-.7q2.088-.7,3.944-1.508,3.712-1.508,7.018-2.784t7.018-2.784q.232-.116.522-.232t.522-.232l.7-.232q1.044.232.928.87a1.1,1.1,0,0,1-.812.87q-4.06,1.624-7.83,3.19t-7.83,3.19q-1.74.7-3.77,1.392a8.355,8.355,0,0,1-3.306.58,2.358,2.358,0,0,1-2.668-2.668,10.29,10.29,0,0,1,.116-1.566,19.393,19.393,0,0,1,.464-2.03,5.165,5.165,0,0,0-1.276.464q-.7.348-1.276.58a103.519,103.519,0,0,0-10.44,6.612q-1.044.7-2.03,1.45T514.344-20.3a2.578,2.578,0,0,1-.812.348.806.806,0,0,1-.812-.232.708.708,0,0,1-.116-.986,5.7,5.7,0,0,1,.7-.87l5.22-5.916q6.264-6.96,12.528-13.746t12.644-13.746q4.176-4.524,8.526-8.874t8.758-8.642q.928-.928,1.682-1.74t1.682-1.74a1.043,1.043,0,0,1,1.044-.116.67.67,0,0,1,.29.7,1.158,1.158,0,0,1-.29.7q-.928.928-2.03,2.146t-2.03,2.146q-6.264,6.148-12.412,12.412-3.828,4.06-7.54,8.062t-7.424,8.062q-1.74,1.972-3.886,4.292t-4.176,4.582q-2.03,2.262-3.712,4.176T519.448-26.216Zm47.56-6.844q-1.392.812-3.538,1.972t-4.35,2.436q-.464.232-1.334.7t-1.856.87a17.931,17.931,0,0,1-2.03.7,7.032,7.032,0,0,1-1.856.29,1.62,1.62,0,0,1-1.276-.522,1.334,1.334,0,0,1-.232-1.334,6.261,6.261,0,0,1,.812-1.972q.58-.928.928-1.392a21.421,21.421,0,0,1,7.192-5.568,7.3,7.3,0,0,1,2.784-.87,5.2,5.2,0,0,1,1.856.174,1.973,1.973,0,0,1,1.276,2.088,3.682,3.682,0,0,1-.232,1.044,1.313,1.313,0,0,1-.464.464q-.348.232-.58,0-.58-.232-.464-.638a3.154,3.154,0,0,0,.116-.87.548.548,0,0,0-.464-.58,2.73,2.73,0,0,0-1.334.116q-.754.232-1.682.58a18.124,18.124,0,0,0-6.728,5.1,6.24,6.24,0,0,0-.812,1.1,6.262,6.262,0,0,0-.7,1.566,10.583,10.583,0,0,0,2.784-.812q.928-.464,1.8-.87t1.8-.87q2.9-1.508,5.684-3.19t5.452-3.306q.464-.232.87-.464t.87-.464a.82.82,0,0,1,1.16.348,1.054,1.054,0,0,1,0,1.16l-.812.812q-1.044,1.16-2.088,2.2t-2.088,2.2q-1.276,1.392-2.436,2.9a27.558,27.558,0,0,0-2.088,3.132A15.832,15.832,0,0,0,561.9-22.91a11.754,11.754,0,0,0-.812,2.146.513.513,0,0,0,.58.58,5.748,5.748,0,0,0,1.74-.58q.928-.464,1.508-.812,1.972-1.276,3.654-2.32t3.538-2.32q2.784-1.856,6.032-3.944t6.032-3.944a.564.564,0,0,0,.29-.116,3.789,3.789,0,0,1,.406-.232,1.817,1.817,0,0,0,.464-.348,1.756,1.756,0,0,1,.87.7q.29.464-.29.928a2.207,2.207,0,0,1-.58.406,10.972,10.972,0,0,0-1.044.638q-4.06,2.668-8.12,5.278t-8.12,5.278a11.433,11.433,0,0,1-1.508.928q-.7.348-1.624.928a9.391,9.391,0,0,1-1.508.7,8.158,8.158,0,0,1-1.856.464,1.869,1.869,0,0,1-1.682-.58,1.837,1.837,0,0,1-.406-1.74,8.771,8.771,0,0,1,1.16-3.422q.928-1.566,1.508-2.494Q564.224-29.7,567.008-33.06Zm20.648-.7a15.19,15.19,0,0,1,1.044,1.682q.464.87.812,1.682a7.975,7.975,0,0,1,1.044,3.712,8.457,8.457,0,0,1-.7,3.364A13.293,13.293,0,0,1,588-20.242q-1.16,1.45-2.32,2.842-2.32,2.668-4.7,5.278t-4.7,5.278q-.464.58-1.392,1.682T572.982-2.9A23.956,23.956,0,0,0,571.3-.7a3.386,3.386,0,0,0-.7,1.508A19.827,19.827,0,0,0,573.156,0a11.524,11.524,0,0,0,2.32-1.276q3.712-2.32,6.728-4.64,4.756-3.364,9.338-6.728t9.338-6.728q4.872-3.6,9.686-7.192t9.686-7.192a8.178,8.178,0,0,1,.812-.58l.7-.464q1.508.464.87,1.16a11.388,11.388,0,0,1-1.566,1.392q-9.048,6.844-18.1,13.456T584.756-5.568q-1.972,1.276-3.77,2.61t-3.77,2.61a19.092,19.092,0,0,1-3.422,1.856,11.158,11.158,0,0,1-3.19.928,1.385,1.385,0,0,1-1.45-.522A1.939,1.939,0,0,1,568.98.348a7.39,7.39,0,0,1,1.74-3.364q1.508-1.856,2.784-3.248,2.436-2.668,4.814-5.452t4.814-5.452q1.044-1.16,2.262-2.552a19.784,19.784,0,0,0,2.088-2.842,10.018,10.018,0,0,0,1.218-3.074,5.268,5.268,0,0,0-.348-3.248q-.464-.928-.928-1.8t-.928-1.8a26.051,26.051,0,0,1-1.624-3.074,15.688,15.688,0,0,1-1.044-3.306,13.844,13.844,0,0,1-.29-4.176,11.765,11.765,0,0,1,1.1-4.06,13.846,13.846,0,0,1,5.916-6.09,25.832,25.832,0,0,1,8-2.842q3.48-.58,4.93.464a4.432,4.432,0,0,1,1.8,2.2,5.436,5.436,0,0,1-.7,4.524,26.393,26.393,0,0,1-3.6,4.814,44.519,44.519,0,0,1-4.64,4.35q-2.436,1.972-3.944,3.016a15.34,15.34,0,0,1-2.494,1.624Q588.584-34.336,587.656-33.756Zm12.76-20.764a11.333,11.333,0,0,0-2.378.29,15.851,15.851,0,0,0-2.726.87,24.943,24.943,0,0,0-6.09,3.306,9.76,9.76,0,0,0-3.654,5.278,11.252,11.252,0,0,0-.116,4.814,21.425,21.425,0,0,0,1.508,4.7q1.392-.812,2.552-1.566t2.2-1.508q1.044-.754,2.2-1.682t2.552-2.2q2.088-1.972,4.234-4.292a12.843,12.843,0,0,0,2.958-4.988,2.633,2.633,0,0,0-.464-2.088Q602.5-54.636,600.416-54.52Zm21.808,21.46q-1.972,1.972-3.944,3.886a26.575,26.575,0,0,0-3.6,4.35q-.348.58-.87,1.508a6.147,6.147,0,0,0-.7,1.8,2.648,2.648,0,0,0,.116,1.566,1.471,1.471,0,0,0,1.334.812,11.064,11.064,0,0,0,4.466-.522,30.447,30.447,0,0,0,4.814-1.914q4.292-2.088,8.7-4.524,5.916-3.364,9.4-5.278t6.264-3.422q.928.232.812.812a1.38,1.38,0,0,1-.7.928q-5.336,3.132-10.556,5.974t-10.44,5.742q-1.624.812-3.422,1.624t-3.654,1.45a15.957,15.957,0,0,1-3.654.812,8.4,8.4,0,0,1-3.306-.29,2.463,2.463,0,0,1-1.508-1.392,4.586,4.586,0,0,1-.232-2.088,7.8,7.8,0,0,1,.58-2.262,10.93,10.93,0,0,1,.928-1.8A34.879,34.879,0,0,1,623.384-35.96a15.8,15.8,0,0,1,3.306-1.74A9.227,9.227,0,0,1,630-38.4a2.513,2.513,0,0,1,2.088.87,2.483,2.483,0,0,1,.348,2.262,7.843,7.843,0,0,1-1.218,2.494,11.233,11.233,0,0,1-2.088,2.2A10.637,10.637,0,0,1,626.516-29a6.93,6.93,0,0,1-2.668.58,2.944,2.944,0,0,1-1.856-.812,1.928,1.928,0,0,1-.464-1.856,7.832,7.832,0,0,0,.174-.928A2.2,2.2,0,0,1,622.224-33.06Zm2.784-.58a11.888,11.888,0,0,0-1.1,1.276,3.277,3.277,0,0,0-.638,1.276q-.116,1.16.7,1.16a3.738,3.738,0,0,0,1.624-.464,12.522,12.522,0,0,0,3.016-2.03,8.347,8.347,0,0,0,2.2-2.958q.348-1.392-1.044-1.392a8.341,8.341,0,0,0-2.2.522,16.96,16.96,0,0,0-2.088.986A1.191,1.191,0,0,1,625.008-33.64Z" transform="translate(663 569)" fill="none" stroke="#8e6005" stroke-width="1"/>
    <path id="Path_2" data-name="Path 2" d="M1090.514,675.767s121.251-85.667,313.233-66.927" transform="translate(-325 -18.196)" fill="none" stroke="#8e6005" stroke-width="1"/>
  </g>
</svg>
