<svg xmlns="http://www.w3.org/2000/svg" width="328.484" height="106.095" viewBox="0 0 328.484 106.095">
  <path id="Path_1" data-name="Path 1" d="M54.235,69q-.037-.019-.046-.009a.108.108,0,0,0-.019.028q-.009.019,0,.019a.071.071,0,0,0,.028-.009A.146.146,0,0,0,54.235,69Zm-.278.315q.019.037.046.028a.089.089,0,0,0,.046-.037.3.3,0,0,1,.037-.046q.056-.111.046-.139t-.056,0a.314.314,0,0,0-.083.074A.187.187,0,0,0,53.957,69.316Zm-.037.074a.214.214,0,0,0-.046.028.038.038,0,0,0-.009.028q0,.019.009.019a.071.071,0,0,0,.028-.009Q53.92,69.446,53.92,69.391Zm-.223.353v-.019l.056-.056a.291.291,0,0,0,.056-.074.143.143,0,0,0,.019-.056q-.019-.019-.056,0a.121.121,0,0,0-.056.056l-.037.074a.149.149,0,0,0-.019.065Q53.66,69.762,53.7,69.743Zm-.111.111h.028a.008.008,0,0,0,.009-.009.033.033,0,0,0-.028-.028.008.008,0,0,0-.009.009Zm-8.962,2.69q.019-.037-.019-.037a.123.123,0,0,0-.065.009q-.009.009,0,.028a.06.06,0,0,0,.037.028Q44.605,72.582,44.624,72.545Zm1.243.223h.019a.709.709,0,0,0,.148-.1.2.2,0,0,0,.074-.158.158.158,0,0,0-.148,0,.582.582,0,0,0-.148.111.683.683,0,0,0-.111.139q-.037.065,0,.074T45.867,72.768Zm-.241.223v-.019q.019-.019.019-.028v-.028a.129.129,0,0,0-.056.009.046.046,0,0,0,0,.074A.03.03,0,0,0,45.626,72.99Zm-2.6,1.781q.037,0,.046-.019t0-.019a.027.027,0,0,0-.019.009Zm-.538.353.019-.019a.082.082,0,0,0,.037-.009.03.03,0,0,0,.019-.028.1.1,0,0,0-.074-.009.118.118,0,0,0-.056.028q-.019.019-.009.028A.123.123,0,0,0,42.49,75.124Zm-.315.223h0Zm-.148.093q-.019-.019-.028-.019a.009.009,0,0,0,0,.019h.028Zm-.167.13Zm-.241.167a.016.016,0,0,0,.019-.019h0V75.7h0a.129.129,0,0,0-.056.009q-.019.009-.019.019t.019.019A.03.03,0,0,0,41.618,75.736Zm-.408.241h0Zm-.575.39Zm-.427.3h.056q.019,0,.009-.009l-.019-.019a.038.038,0,0,0-.028-.009q-.019,0-.019.009Zm-.742.52a.293.293,0,0,0-.186.111q-.056.074-.037.1t.065,0a.488.488,0,0,0,.093-.074.46.46,0,0,0,.083-.121Zm-.594.538V77.7a.09.09,0,0,0,.046-.019.105.105,0,0,0,.037-.037.03.03,0,0,0-.009-.037.037.037,0,0,0-.056-.019.184.184,0,0,0-.065.056.072.072,0,0,0-.019.065Q38.816,77.74,38.872,77.722ZM38.186,78a.166.166,0,0,1-.028.083.316.316,0,0,0-.037.083.045.045,0,0,0,.028.056.079.079,0,0,0,.1-.037.392.392,0,0,0,.037-.121.106.106,0,0,0-.019-.093Q38.241,77.944,38.186,78Zm-.649.575q-.019,0-.028.028a.152.152,0,0,0-.009.037q0,.009.037.009a.159.159,0,0,0,.093-.046.046.046,0,0,0,.009-.046.037.037,0,0,0-.037-.019A.1.1,0,0,0,37.536,78.575Zm-.52.315a.116.116,0,0,0-.028.046l-.019.056q-.009.028.009.028a.077.077,0,0,0,.083-.009.1.1,0,0,0,.028-.074.091.091,0,0,0-.019-.065Q37.054,78.854,37.017,78.891Zm-.353.26a.113.113,0,0,0-.083.028.089.089,0,0,0-.028.065q.037.074.074.074a.08.08,0,0,0,.065-.037.136.136,0,0,0,.028-.083Q36.72,79.15,36.664,79.15Zm-1.206.928q-.019.019-.028.019a.008.008,0,0,0-.009.009v.009a.164.164,0,0,0,.1.028.06.06,0,0,0,.037-.028q.009-.019-.019-.037A.1.1,0,0,0,35.458,80.078Zm-.649.464.019.009a.03.03,0,0,0,.037-.009q.019-.019.009-.028a.108.108,0,0,0-.028-.019.039.039,0,0,0-.037,0Q34.79,80.5,34.809,80.542Zm-1.5,1h-.019a.039.039,0,0,0,.065.028.012.012,0,0,0,0-.019A.073.073,0,0,0,33.306,81.544ZM32.9,81.9l.019-.009a.082.082,0,0,1,.037-.009q.019-.019,0-.028a.039.039,0,0,0-.037,0l-.037.019q-.019.009-.019.019T32.9,81.9Zm-.223.13h.019A.145.145,0,0,1,32.73,82a.03.03,0,0,0,.019-.028q0-.019-.009-.019a.1.1,0,0,0-.037.019.3.3,0,0,0-.046.037q-.019.019-.019.028T32.675,82.026Zm-.445.278a.206.206,0,0,0,.065-.009.043.043,0,0,0,.028-.046q.037-.037.019-.046a.06.06,0,0,0-.046,0,.234.234,0,0,0-.056.028q-.028.019-.028.037A.053.053,0,0,0,32.229,82.3ZM35.9,78.891a.016.016,0,0,0-.019.019q-.074.074-.139.13a.873.873,0,0,1-.176.111,2.482,2.482,0,0,0-.464.3q-.093.074-.2.148-.8.557-1.6,1.095-.13.093-.39.26-.371.223-.816.52t-.8.566a1.986,1.986,0,0,0-.445.417q-.056.111-.019.13a.132.132,0,0,0,.111-.019,1.481,1.481,0,0,0,.158-.093.833.833,0,0,0,.121-.093h0q.334-.223.631-.445a7.4,7.4,0,0,1,.705-.52l.557-.315a5.464,5.464,0,0,0,.835-.52,3.569,3.569,0,0,1,.557-.371,1.813,1.813,0,0,0,.464-.3,4.737,4.737,0,0,1,.52-.39,4.972,4.972,0,0,0,.575-.464.494.494,0,0,0,.111-.167.223.223,0,0,0,.019-.148q-.019-.056-.083-.037A.651.651,0,0,0,35.9,78.891ZM31,83.14a.046.046,0,0,0,.074,0h0q.074-.056.074-.083t-.037-.028a.123.123,0,0,0-.074.028A.1.1,0,0,0,31,83.14Zm10.057.464q-.037.037-.037.046T41.062,83.6Zm-10.706.056v0Zm10.558.111a.09.09,0,0,0-.046.019.3.3,0,0,0-.046.037.044.044,0,0,0,.037.046.064.064,0,0,0,.065-.019.2.2,0,0,0,.037-.046Q40.969,83.789,40.913,83.771Zm-11.04.186.019-.009a.03.03,0,0,0,.019-.028V83.9h-.037q-.26.093-.25.148T29.873,83.956Zm-.315.186-.009-.009a.012.012,0,0,0-.019,0l-.009.009.009.009Q29.539,84.16,29.558,84.142Zm-.315.223-.019-.019-.009.009-.009.009h.037Zm.13-.983q-.371.241-.742.464-.371.2-.742.445-.037.037-.13.121a.6.6,0,0,0-.139.176q-.046.093.028.13a.767.767,0,0,0,.241-.093,4.631,4.631,0,0,0,.417-.241q.232-.148.427-.278T29,83.919q.186-.13.52-.353.371-.223.705-.455a1.914,1.914,0,0,0,.427-.362q.056-.13-.046-.1a1.618,1.618,0,0,0-.306.139q-.2.111-.408.241t-.362.241ZM28.481,84.9a.053.053,0,0,0-.037-.019.153.153,0,0,0-.046.009.153.153,0,0,1-.046.009q-.074.037-.074.056t.037.028a.135.135,0,0,0,.083-.009A.187.187,0,0,0,28.481,84.9Zm-.464.26L28,85.181H27.99a.008.008,0,0,0-.009.009V85.2a.085.085,0,0,0,.065.009.1.1,0,0,0,.037-.019q.009-.009-.009-.019A.129.129,0,0,0,28.018,85.162Zm11,1.466q.019-.019.083-.093a1.161,1.161,0,0,0,.111-.148q.046-.074.028-.111a.34.34,0,0,0-.13.1,1.528,1.528,0,0,0-.13.167.271.271,0,0,0-.056.121Q38.928,86.7,39.021,86.628Zm-.445.612a.287.287,0,0,0,.223-.186q.056-.111.037-.13t-.065.019a1.265,1.265,0,0,0-.1.093.385.385,0,0,0-.083.121Q38.557,87.222,38.575,87.24Zm-14.417.334q0-.019-.009-.019H24.13a.009.009,0,0,0,0,.019Zm14.194-.019a.358.358,0,0,0-.148.186q-.037.093-.028.1t.056-.037a.668.668,0,0,0,.083-.1.569.569,0,0,0,.056-.1Q38.39,87.556,38.353,87.556ZM23.4,88.112h.019l.009.009.009.009a.03.03,0,0,0,.009-.037.03.03,0,0,0-.028-.019h-.028a.008.008,0,0,0-.009.009Q23.379,88.094,23.4,88.112Zm14.436.13a.206.206,0,0,1-.009.065.042.042,0,0,0,.009.046q.019.019.056-.019.111-.056.121-.121t-.037-.074Q37.926,88.131,37.833,88.242Zm-15.883.687a.038.038,0,0,1,.028.009l.009.009h.019A.038.038,0,0,0,22,88.919l-.019-.019a.012.012,0,0,0-.019,0l-.009.009Zm-.186.056.009-.019a.082.082,0,0,0,.009-.037q-.019-.019-.028-.009a.108.108,0,0,0-.019.028.082.082,0,0,0-.009.037.038.038,0,0,0,.009.028Q21.746,89.021,21.765,88.984Zm15.549.241Zm-15.864,0Zm15.642.315a.215.215,0,0,1,.028-.046q.009-.009,0-.009a.027.027,0,0,0-.019.009A.073.073,0,0,0,37.091,89.541Zm-.093.2ZM72.066,15.1q-8.053-.39-19.909,6.837A139.643,139.643,0,0,0,28.472,40.492,140.044,140.044,0,0,0,8.7,63.713Q.761,75.606.538,84.55q0,.241-.009.4t-.009.288Q.5,85.4.5,85.793a10.061,10.061,0,0,0,.687,3.767q2.245,6.309,8.795,5.01a30.938,30.938,0,0,0,9.574-3.6q.575-.334,1.188-.631.742-.39,1.429-.8.854-.538.807-.705t-1.03.427q-.965.594-1.967,1.132-.5.278-1.085.594t-1.1.538a3.612,3.612,0,0,1-.52.158q-.223.046-.2-.037t.445-.38a7.856,7.856,0,0,0,.8-.594,8.18,8.18,0,0,1,.946-.705.975.975,0,0,0,.148-.093q.445-.278.946-.575a8.453,8.453,0,0,1,.928-.482.711.711,0,0,1,.158-.046.767.767,0,0,1,.1-.009.39.39,0,0,0,.093-.009.23.23,0,0,0,.093-.065,5.116,5.116,0,0,1,1.6-1.169,1.206,1.206,0,0,0,.334-.158q.111-.083.2-.158a1.416,1.416,0,0,1,.334-.26q.26-.148.371-.2a1,1,0,0,0,.25-.111,3.416,3.416,0,0,0,.362-.278,7.525,7.525,0,0,1,.891-.557q.52-.3.946-.575a1.457,1.457,0,0,0,.482-.408q0-.111-.121-.065a1.539,1.539,0,0,0-.288.158q-.167.111-.3.2-.093.056-.13.074A16.357,16.357,0,0,0,23.527,87.2a.216.216,0,0,1-.056-.037.163.163,0,0,0-.046-.019.071.071,0,0,0-.028.009.264.264,0,0,0-.056.046l-.074.056q-.445.334-1.03.7a11.857,11.857,0,0,1-1.085.6q-.371.186-.64.343t-.529.325q-.186.13-.408.26a3.63,3.63,0,0,1-.371.223q-.148.074-.334.148-.093.037-.223.093-.148.074-.3.167a1.259,1.259,0,0,1-.353.167,2.382,2.382,0,0,0-.371.121,2.3,2.3,0,0,0-.3.158,1.828,1.828,0,0,0-.241.148,9.086,9.086,0,0,1-1.021.427,6.051,6.051,0,0,0-1.187.538l-.019.019a.852.852,0,0,1-.26.13,1.309,1.309,0,0,0-.482.2l-.223.111a18.542,18.542,0,0,1-3.878,1.206,9.684,9.684,0,0,1-2.8.148,5.626,5.626,0,0,1-4.509-3.655,9.917,9.917,0,0,1-.742-5.418Q3.674,73.788,12.45,61.551A143.764,143.764,0,0,1,33.185,38.543a126.708,126.708,0,0,1,23.2-16.978q11.244-6.207,17.887-4.759l.111.037a5.433,5.433,0,0,1,3.655,2.5,10.246,10.246,0,0,1,.028,8.377,19.294,19.294,0,0,1-4.7,7.3,5.449,5.449,0,0,1-.52.353,2.515,2.515,0,0,0-.612.445.993.993,0,0,0-.278.687l.019.148q.093.594.547.659a1.266,1.266,0,0,0,.9-.232,11.789,11.789,0,0,0,2.468-2.514,26.057,26.057,0,0,0,1.967-2.978,18.212,18.212,0,0,0,2.208-7.645,8.2,8.2,0,0,0-2.728-7.088A9.635,9.635,0,0,0,72.066,15.1ZM33.25,95.182q-.019.019-.019.028a.027.027,0,0,0,.009.019.038.038,0,0,0,.028.009q.037,0,.046-.019a.039.039,0,0,0,0-.037.03.03,0,0,0-.028-.019A.053.053,0,0,0,33.25,95.182Zm-.724,1.41a.033.033,0,0,0,.037-.037.03.03,0,0,0-.019-.028q-.019-.009-.028,0a.038.038,0,0,0-.009.028q0,.019,0,.028T32.526,96.592Zm-5.715,12.3q-.019-.019-.028-.009l-.028.028a.142.142,0,0,0-.019.056.016.016,0,0,0,.019.019.082.082,0,0,0,.037-.009.06.06,0,0,0,.028-.037A.042.042,0,0,0,26.812,108.894Zm-.186.742a.107.107,0,0,0-.019.074q.019.019.019.028t.009-.009a.1.1,0,0,0,.009-.046v-.037Q26.645,109.636,26.626,109.636Zm-.111,1.911v.037a.053.053,0,0,0,.019-.037v-.028q0-.009-.009,0A.038.038,0,0,0,26.515,111.547ZM47.24,70.615q.056,0,.065.019a.039.039,0,0,1,0,.037.061.061,0,0,1-.028.028.03.03,0,0,1-.037-.009Q47.222,70.671,47.24,70.615Zm-2.728,2.672q.056,0,.056.028a.1.1,0,0,1-.037.065q-.056.074-.1.074t-.046-.037a.166.166,0,0,1,.028-.083A.109.109,0,0,1,44.513,73.287ZM26.719,110.656a6.254,6.254,0,0,0,.241,3.062v.019a2.543,2.543,0,0,1,.13.26,5.718,5.718,0,0,0,.928,1.215,2.3,2.3,0,0,0,1.317.7,4.877,4.877,0,0,0,1.429-.028,1.749,1.749,0,0,0,1.206-.64q.13-.223-.009-.306a.851.851,0,0,0-.427-.083,3.783,3.783,0,0,0-.584.046q-.3.046-.5.083a.782.782,0,0,1-.13.019,1.864,1.864,0,0,1-2.152-1.215,6.488,6.488,0,0,1-.371-2.737,23.289,23.289,0,0,1,2.82-7.96q.816-1.614,1.707-3.191,1.614-2.913,3.377-5.715l.13-.2q.557-.891,1.113-1.8,1.021-1.651,2.078-3.266.315-.464.649-.909.167-.223.334-.464.464-.649.854-1.317.334-.557.724-1.132.2-.315.427-.649.52-.779,1.039-1.5l.816-1.076q1.41-1.855,2.8-3.767.946-1.317,1.948-2.616.594-.742,1.206-1.447.816-.928,1.521-1.893a24.454,24.454,0,0,1,1.577-1.911q.668-.761,1.3-1.559a3.754,3.754,0,0,0,.223-.334q.13-.186.269-.39l.241-.353q.1-.148.158-.167.093-.037.046.074a2.36,2.36,0,0,1-.167.306q-.121.195-.288.417-.186.26-.306.445t-.065.2q.037,0,.158-.148t.269-.353q.148-.2.26-.371t.13-.2a1.7,1.7,0,0,0,.186-.417.7.7,0,0,0,.019-.269,1.09,1.09,0,0,1,.019-.195.646.646,0,0,1,.13-.25,3.608,3.608,0,0,0,.241-.334,2.208,2.208,0,0,0,.278-.38,3.574,3.574,0,0,0,.241-.566q.26-.816.037-1.095a1.473,1.473,0,0,0-1.058-.315,4.83,4.83,0,0,0-1.113.111,3.682,3.682,0,0,1-1.095.111,3.6,3.6,0,0,0-.677-.009,5.667,5.667,0,0,0-.566.083q-.278.056-.668.111a7.507,7.507,0,0,0-1.5.3q-.371.111-.872.223-1,.2-1.985.445-2.189.52-4.342.872-.26.037-.52.093-2.319.39-4.676.687-2.1.26-4.175.612-.26.037-.575.056a4.267,4.267,0,0,0-1.243.241.8.8,0,0,0-.52.891q.13.909.733.937a2.477,2.477,0,0,0,1.271-.325,1.214,1.214,0,0,0,.13-.074q.371-.186.622-.288a3.41,3.41,0,0,1,.714-.176l1.781-.334,2.227-.408,1.039-.186q.779-.13,1.559-.278.538-.13,1.076-.3a8.687,8.687,0,0,1,1.262-.334q1.039-.167,2.06-.427l.965-.223q.909-.2,1.818-.427.482-.111.946-.223.575-.111,1.15-.26a1.942,1.942,0,0,0,.315-.111,12.614,12.614,0,0,1,1.271-.371,1.724,1.724,0,0,1,1.1.019q.464.3.083.835a5.29,5.29,0,0,1-1.048,1.067q-.668.529-1.058.789-.074.056-.13.093-.241.223-.371.353a2.681,2.681,0,0,1-.371.343q-.186.139-.594.38a1.786,1.786,0,0,0-.482.39,1.969,1.969,0,0,1-.408.334,2.094,2.094,0,0,0-.445.334.331.331,0,0,1-.093.093,6.041,6.041,0,0,1-.538.445.7.7,0,0,0-.223.26.413.413,0,0,1-.1.13.52.52,0,0,1-.195.093,1.609,1.609,0,0,0-.362.13.982.982,0,0,0-.288.26q-.111.148-.223.278a2.663,2.663,0,0,1-.417.38q-.176.121-.343.213a1.678,1.678,0,0,0-.52.353.731.731,0,0,1-.158.1q-.065.028-.1.046a.72.72,0,0,0-.093.037.2.2,0,0,0-.074.093q-.093.13-.148.2a1.159,1.159,0,0,1-.111.158.954.954,0,0,1-.139.13q-.083.065-.25.176-1.688,1.15-3.358,2.338-.464.334-.946.649-.816.557-1.614,1.15-.056.037-.148.111-.2.13-.455.325t-.455.371a.906.906,0,0,0-.241.269q-.019.148.148.1a1.682,1.682,0,0,0,.417-.2q.25-.158.492-.334t.39-.288a.528.528,0,0,1,.111-.093,1.68,1.68,0,0,0,.3-.3.786.786,0,0,1,.2-.2,2.24,2.24,0,0,0,.232-.13q.083-.056.176-.13.093-.056.2-.13,1.744-1.113,3.433-2.375a1.084,1.084,0,0,1,.111-.093l.408-.315a3.468,3.468,0,0,1,.445-.3q.2-.111.269-.028t-.121.455a.954.954,0,0,0,.52-.334.216.216,0,0,1,.056-.037,2.293,2.293,0,0,1,.39-.315,1.858,1.858,0,0,0,.38-.288.829.829,0,0,0,.213-.436.471.471,0,0,1,.13-.3,2.422,2.422,0,0,1,.26-.223l.148-.074a.737.737,0,0,0,.111-.093,1.79,1.79,0,0,1,.3-.2.354.354,0,0,1,.278-.056.291.291,0,0,1,.056.074.165.165,0,0,1,.019.074.606.606,0,0,0,.037.065q.019.028.083.009a.723.723,0,0,0,.186-.1q.121-.083.343-.25t.427-.315a4.432,4.432,0,0,0,.39-.278.633.633,0,0,1,.13-.13,2.221,2.221,0,0,1,.241-.241.248.248,0,0,1,.241-.074q.13.074.009.232a1.363,1.363,0,0,1-.353.306q-.232.148-.38.26a.427.427,0,0,0-.111.056l-.093.074q-.687.52-1.354,1.039-1.15.891-2.338,1.688-1.744,1.187-3.433,2.394-.408.3-.854.575a21.848,21.848,0,0,0-1.781,1.28,15.972,15.972,0,0,1-1.466,1.132q-.761.52-1.54,1.058-1.354.909-2.653,1.837-.557.39-1.132.742-.5.334-1,.687a1.689,1.689,0,0,0-.26.186q-.724.482-1.336.946l-.111.093a3.022,3.022,0,0,1-.705.408,2.508,2.508,0,0,0-.687.371q-.52.371-1.021.687-.13.093-.278.186-.371.241-.761.482-.2.13-.464.278-.575.315-.983.594l-.046.046q-.046.046-.111.1a.556.556,0,0,0-.1.111q-.037.056-.028.083t.1.009a4.419,4.419,0,0,0,.668-.362q.538-.325,1.132-.7l.891-.557a.291.291,0,0,1,.074-.056q.445-.278.891-.538.594-.353,1.15-.724.594-.427,1.206-.8.742-.464,1.447-.983.816-.594,1.6-1.113.464-.3.909-.612.649-.445,1.317-.891l2.375-1.633q.371-.278.761-.52.408-.26.8-.538.52-.39,1.039-.761.779-.575,1.6-1.15,1.095-.779,2.245-1.54A52.23,52.23,0,0,0,48.02,71.9a.976.976,0,0,0,.148-.186,1.229,1.229,0,0,1,.148-.158.366.366,0,0,1,.186-.083,1.37,1.37,0,0,1,.482-.39,1.146,1.146,0,0,0,.2-.13h0q.074-.074.325-.269t.52-.39a2.411,2.411,0,0,1,.445-.269q.176-.074.139.111a3.945,3.945,0,0,1-.325.52q-.213.3-.417.575-.111.13-.186.223-.631.835-1.262,1.633-.946,1.225-1.893,2.486-.3.39-.612.8-.631.8-1.187,1.577-.594.909-1.169,1.818-.334.52-.668,1.058-.2.278-.482.687-.39.538-.751,1.095a3.853,3.853,0,0,0-.473.928,4.534,4.534,0,0,1-.835,1.559l-.3.445q-1,1.521-2.022,3.024-.5.742-.983,1.466-.278.408-.538.8A35.48,35.48,0,0,0,34.122,94.7q-.371.705-.742,1.3-.167.278-.353.594-.779,1.373-1.559,2.765-.965,1.781-1.763,3.563-.315.705-.668,1.429a29.635,29.635,0,0,0-1.262,3.136l-.371.928A7.394,7.394,0,0,0,26.719,110.656ZM75.852,71.617h-.019l-.019-.019a.274.274,0,0,1,.2-.186l.019.019A.238.238,0,0,1,75.852,71.617Zm-2.876,1.948a.066.066,0,0,1-.074-.074q.037-.037.056-.037a.059.059,0,0,1,.056.037.153.153,0,0,1-.009.046Q72.994,73.565,72.976,73.565Zm-.575.482a.059.059,0,0,1-.056-.037.109.109,0,0,1,.056-.093.18.18,0,0,1,.093-.037q.037,0,.037.019Q72.53,74.048,72.4,74.048Zm-2.022,1.707-.056-.019q.056-.315.8-.724.52-.3.594-.52.019-.111.111-.111a.016.016,0,0,1,.019.019q0,.278-.557.779Q70.656,75.755,70.378,75.755Zm-.334.3A.049.049,0,0,1,69.988,76q0-.037.074-.037V76Zm-1.28,1.3a.214.214,0,0,0,.046-.028.123.123,0,0,0,.009-.065q-.093.056-.093.074T68.764,77.351Zm-3.358,3.024a1.966,1.966,0,0,1-1.336-.547,4.1,4.1,0,0,1-.965-1.271,3.529,3.529,0,0,1-.39-1.447,6.706,6.706,0,0,1,.241-1.67,2.67,2.67,0,0,0,.037-.5.119.119,0,0,0-.111-.074.768.768,0,0,0-.445.269,2.981,2.981,0,0,0-.353.38,10.886,10.886,0,0,1-1.123.863,9.028,9.028,0,0,1-1.29.659,2.735,2.735,0,0,1-1,.223,2.374,2.374,0,0,1-.872-.167,1.694,1.694,0,0,1-.946-.946,1.522,1.522,0,0,1-.148-.612,2,2,0,0,1,.751-1.29q.751-.733,1.457-1.475,4.156-4.416,5.845-4.416a1.607,1.607,0,0,1,.557.1,6.718,6.718,0,0,1,.844.417,4.343,4.343,0,0,1,.918.659.942.942,0,0,1,.353.622.312.312,0,0,1-.353.353,1.566,1.566,0,0,1-.612-.2,2.425,2.425,0,0,0-.724-.186.781.781,0,0,0-.186.019q-2.5.8-5.956,4.546-.445.482-.445.631l.111.056a7.232,7.232,0,0,0,1.985-.891,4.438,4.438,0,0,1,.835-.371.5.5,0,0,0,.241-.148,1.915,1.915,0,0,1,.38-.343,4.472,4.472,0,0,1,.659-.436,3.537,3.537,0,0,0,1.243-1.058q.668-.835,1.169-.835a1.425,1.425,0,0,1,.816.353.971.971,0,0,1,.39.687,1.781,1.781,0,0,1-.5.965A9.013,9.013,0,0,0,64.2,78.019q.074.705.325.789a1.374,1.374,0,0,0,.417.083,1.782,1.782,0,0,0,.687-.167,14.775,14.775,0,0,0,3.488-2.1,2.1,2.1,0,0,1,.594-.408q.037,0,.037.019a1.05,1.05,0,0,1-.176.315,1.05,1.05,0,0,0-.176.315.016.016,0,0,0,.019.019,1.638,1.638,0,0,0,.334-.2q2.3-1.837,4.583-3.841l1.206-1a1.538,1.538,0,0,1-.594.983,5.657,5.657,0,0,0-.761.928,8.429,8.429,0,0,1-1.6,1.614,17.819,17.819,0,0,0-1.373,1.243q-.52.52-.983.946l-.557.557a7.837,7.837,0,0,1-1.15.872l-.594.408A4.449,4.449,0,0,1,65.405,80.375ZM89.4,82.713a.107.107,0,0,1-.074-.037.121.121,0,0,1,.056-.056q.111,0,.111.056Q89.489,82.713,89.4,82.713Zm-1.113.241q-.2-.019-.186-.074,0-.093.38-.186a2.7,2.7,0,0,1,.6-.093q.13,0,.13.037t-.148.13A1.507,1.507,0,0,1,88.283,82.954Zm-9.129,1.67a.229.229,0,0,1-.13-.037q0-.074.269-.213a1.009,1.009,0,0,1,.4-.139q.074,0,.074.037,0,.074-.223.213A.765.765,0,0,1,79.154,84.624Zm-1.559.464q-.13,0-.111-.056,0-.074.241-.167a.271.271,0,0,1,.167-.056q.056.019.056.056a.18.18,0,0,1-.037.093A.524.524,0,0,1,77.6,85.088Zm.835.186a.016.016,0,0,0-.019-.019l.019-.037q.019,0,.019.037A.016.016,0,0,1,78.431,85.273Zm-4.769.3q-.056-.019-.056-.056.019-.111.26-.093,0,.056-.083.1A.3.3,0,0,1,73.662,85.57Zm2.82.371-.093-.019-.019-.037a.111.111,0,0,1,.111-.019q.019,0,.056.037a.053.053,0,0,1-.037.019A.016.016,0,0,0,76.482,85.941Zm-.427.167q-.056,0-.056-.019.019-.111.111-.111.056,0,.037.056Q76.148,86.053,76.056,86.108Zm-.612.2a.063.063,0,0,0-.046-.019q-.028,0-.028-.019,0-.056.111-.056a.033.033,0,0,1,.037.037Q75.518,86.313,75.443,86.313Zm-4.082.13q-.074,0-.074-.019.019-.093.371-.3a5.55,5.55,0,0,1,1.429-.52q.093.019.093.056a.128.128,0,0,1-.046.083,1.507,1.507,0,0,1-.278.167q-.232.121-.529.241t-.575.2A1.621,1.621,0,0,1,71.361,86.442Zm2.171.594a.016.016,0,0,0-.019-.019A.016.016,0,0,1,73.5,87l.037-.019Zm-3.358-.167a.016.016,0,0,1-.019-.019h.037A.016.016,0,0,1,70.174,86.869Zm2.356.538-.093-.019q0-.019.037-.019l.074.019Zm-.3.111q0-.037.019-.037Zm3.692,2.987a1.249,1.249,0,0,1,.241-.343,1.03,1.03,0,0,1,.186-.176.551.551,0,0,1-.13.25A.934.934,0,0,1,75.926,90.506Zm-9.611-.148a.016.016,0,0,1,.019-.019Zm9.426.464v-.093h.019l.019.074Zm-.093.111-.037-.019h.037Zm-9.871-.26q-.074,0-.074-.019,0-.074.093-.074A.147.147,0,0,1,65.776,90.673Zm-.2.093q-.093-.019-.093-.037h.056q.056,0,.056.019Zm-.39.186h-.037v-.019h.037Zm10.131.353a.151.151,0,0,1,.037-.111q.111-.13.148-.13l.019.056q0,.019-.037.056l-.074.074A.233.233,0,0,1,75.313,91.3Zm-10.3-.26q-.074,0-.074-.019L65,91.007Zm10.205.445q-.019,0-.037-.037,0-.019.037-.019l.037.019Q75.239,91.489,75.221,91.489ZM64.83,91.155q-.074,0-.074-.037t.019-.037Zm-.427.167a.033.033,0,0,1,.037-.037v.037ZM75,91.768q-.056,0-.056-.019,0-.037.019-.037Q75,91.712,75,91.768Zm-10.817-.334q-.037,0-.019-.037l.056.019Zm-.5.26-.056-.019q0-.093.093-.074l.019.019Q63.7,91.693,63.68,91.693Zm-.186.111-.093-.019.074-.019Q63.494,91.768,63.494,91.8Zm10.854.724h-.037l.093-.2q.334-.427.427-.427.019,0,.019.037,0,.148-.427.538Q74.367,92.528,74.349,92.528Zm-.148.2a.033.033,0,0,1,.037-.037v.019Zm-.093.13a.016.016,0,0,1-.019-.019h.037Zm-11.856-.39h-.019v-.037a.119.119,0,0,1,.111-.074l.019.037Q62.362,92.436,62.251,92.473Zm-.26.13-.019-.056q.037.019.037.037A.016.016,0,0,1,61.991,92.6Zm11.819.631q-.037,0-.037-.019a.123.123,0,0,1,.028-.074.605.605,0,0,1,.056-.065.076.076,0,0,1,.046-.028l.019.019A.178.178,0,0,1,73.811,93.233ZM61.75,92.751q-.056-.019-.056-.037,0-.074.093-.056l.019.037Zm11.931.612q-.037,0-.037-.019l.019-.019.056.019Zm-.2.186h-.056q0-.056.037-.056Zm-.482.612q0-.056.056-.037l-.019.037Zm-.2.223q0-.019.056-.037Q72.809,94.384,72.79,94.384Zm-.056.074h-.056q0-.037.019-.037l.037.019Zm-12.988-.612-.074-.019q.037-.093.371-.186.074,0,.074.019a.306.306,0,0,1-.1.093.514.514,0,0,1-.158.074A.508.508,0,0,1,59.746,93.846Zm-.464.26-.074-.019V94.05a.075.075,0,0,1,.074-.037l.037.019Zm13.229.649q-.056,0-.056-.037l.056.019ZM58.855,94.31q0-.111.093-.093.019,0,.037.037-.056.056-.074.056Zm13.526.631h-.037q.019-.093.056-.111l.019.037-.037.019Zm-13.73-.5a.016.016,0,0,1-.019-.019.049.049,0,0,1,.056-.056.033.033,0,0,1,.037.037Zm13.415.779.074-.056h.019Zm-13.972-.39q-.074,0-.074-.056l.056-.056a.147.147,0,0,1,.093.019Q58.169,94.829,58.095,94.829Zm-.557.278q-.019,0-.019-.037a.073.073,0,0,1,.074-.056.059.059,0,0,1,.037.056Q57.631,95.107,57.538,95.107Zm14.009.687q-.019,0,0-.074.111-.167.2-.167l.019.019Q71.64,95.812,71.547,95.794Zm-.2.278-.074-.019q0-.019.056-.019Zm-.5.538-.019-.093q.037,0,.037.074A.016.016,0,0,1,70.842,96.61Zm-.167.2q-.056,0-.056-.037a.114.114,0,0,1,.13-.093l.019.019Q70.693,96.814,70.675,96.814Zm-15.308-.39v-.019l.019-.037q.037,0,.046.019a.018.018,0,0,1-.009.028A.129.129,0,0,1,55.367,96.425Zm14.881.854h-.056q.056-.093.074-.093a.049.049,0,0,1,.056.056ZM54.94,96.722q-.074,0-.074-.037l.056-.037a.033.033,0,0,1,.037.037ZM69.784,97.8h-.037q0-.074.019-.074a.033.033,0,0,1,.037.037Zm-.278.3q-.056,0-.056-.074t.167-.148l.037.019a.21.21,0,0,1-.056.139Q69.543,98.095,69.506,98.095Zm-15.7-.612q-.037,0-.037-.056.093,0,.093.019A.059.059,0,0,1,53.809,97.482Zm-.8.5q-.037,0-.037-.019.111-.148.223-.13a.049.049,0,0,1,.056.056A.712.712,0,0,1,53.011,97.983Zm15.809.835a.033.033,0,0,1-.037-.037.082.082,0,0,1,.093-.093l.037.019Q68.856,98.818,68.819,98.818Zm-16.31-.482a.033.033,0,0,1-.037-.037q.019-.074.074-.074a.076.076,0,0,1,.056.019l-.037.074Zm15.976.8-.037-.019a.178.178,0,0,1,.111-.148A.033.033,0,0,1,68.6,99a.486.486,0,0,1-.056.083Q68.5,99.134,68.485,99.134Zm-.111.148a.033.033,0,0,1-.037-.037h.037Zm-.2.148-.019-.019q0-.111.056-.093l.037.019Q68.244,99.431,68.17,99.431ZM51.3,99.171h-.037q0-.037.074-.111a.468.468,0,0,1,.278-.186l.037.037q0,.074-.158.167A.648.648,0,0,1,51.3,99.171Zm-.427.26a.033.033,0,0,1-.037-.037.049.049,0,0,1,.056-.056l.019.074Zm-.315.26q-.019,0-.019-.037.019-.074.13-.074Q50.617,99.69,50.562,99.69Zm-.167.148q-.074,0-.074-.056,0-.037.056-.037.037.037.037.056Q50.413,99.839,50.395,99.839ZM67,100.618q0-.111.315-.464t.445-.334a1.6,1.6,0,0,1-.594.687Q67.038,100.618,67,100.618ZM49.634,100.3l-.074-.019q.037-.167.3-.26a.646.646,0,0,1,.241-.13q.037,0,.037.019,0,.056-.167.232A.4.4,0,0,1,49.634,100.3Zm16.792.983-.019-.074.037.056A.016.016,0,0,1,66.426,101.286Zm-.315.334q-.056,0-.056-.037,0-.223.186-.223a.12.12,0,0,1,.056.074Q66.3,101.509,66.11,101.62Zm-.649.594-.019-.037a.311.311,0,0,1,.1-.186.274.274,0,0,1,.176-.111.016.016,0,0,1,.019.019Q65.739,102.121,65.461,102.214Zm-.353.315a.508.508,0,0,0,.019-.111q0-.037.111-.093.037,0,.037.056Q65.275,102.529,65.108,102.529Zm-.482.538-.019-.037q0-.241.2-.241a.059.059,0,0,1,.037.056.109.109,0,0,1-.056.093.553.553,0,0,0-.074.056Q64.645,103.067,64.626,103.067Zm-.278.241a.075.075,0,0,1-.037-.074q0-.037.019-.037a.088.088,0,0,1,.074.093Q64.4,103.309,64.348,103.309Zm-.445.445-.074-.019q0-.074.2-.2a.207.207,0,0,1,.093-.019.033.033,0,0,1,.037.037A.54.54,0,0,1,63.9,103.754Zm-.482.52-.074-.019a.107.107,0,0,1-.037-.074l.074-.019q.019,0,.056.074Q63.438,104.273,63.42,104.273Zm-.557.464q-.056,0-.056-.037.019-.13.074-.13.019,0,.019.037a.305.305,0,0,1-.009.074A.118.118,0,0,1,62.863,104.737Zm-.111.111a.033.033,0,0,1-.037-.037l.074-.037.019.019a.145.145,0,0,0-.028.037A.03.03,0,0,1,62.752,104.849Zm-.093.111a.033.033,0,0,1-.037-.037l.019-.037a.049.049,0,0,1,.056.056Zm-.575.52q-.093,0-.093-.074,0-.019.074-.093l.056-.019q.037,0,.037.093Q62.14,105.479,62.084,105.479Zm-.8.594q-.037,0-.037-.019,0-.056.241-.241a.543.543,0,0,1,.186-.111q.037,0,.037.019a.285.285,0,0,1-.037.111.489.489,0,0,1-.148.158A.394.394,0,0,1,61.286,106.073Zm-.334.371a.016.016,0,0,1-.019-.019q.019-.074.2-.186a.166.166,0,0,1-.083.158A.362.362,0,0,1,60.952,106.444Zm-.093.093q-.074,0-.074-.019l.019-.037.056.019Zm-.353.278q-.019,0-.019-.037,0-.056.111-.111a.059.059,0,0,1,.056-.037.033.033,0,0,1,.037.037Q60.581,106.834,60.507,106.815Zm-.13.13q-.037-.019-.037-.037a.059.059,0,0,1,.056-.037q.019,0,0,.019Zm-.538.464.019-.074q.037,0,.019.056Zm.52.223a.107.107,0,0,1-.074-.019q0-.056.037-.056a.107.107,0,0,0,.074-.037q.037,0,.037.019Q60.433,107.632,60.358,107.632Zm-.427.315q0-.037.019-.037Zm-.631-.019q-.111,0-.111-.037t.186-.13q.056,0,.056.037Zm-.612.445q-.037,0-.037-.056a1.266,1.266,0,0,1,.278-.334.323.323,0,0,1,.13-.056.076.076,0,0,1,.019.056q0,.074-.148.232T58.688,108.374Zm.594.186a.163.163,0,0,0,.019-.046q0-.009.019-.009Q59.3,108.56,59.282,108.56Zm-.074.093-.037-.037.019-.019.037.037Zm-14.12,7.311a.147.147,0,0,1-.093-.019l.074-.019Zm-1.206.612a.1.1,0,0,1-.074-.111q.019-.093.13-.074.074.019.074.074A.119.119,0,0,1,43.882,116.575Zm-.13.074q-.019,0-.019-.074a.059.059,0,0,1,.037.056Zm-.8.186a.127.127,0,0,1-.111-.093q0-.2.482-.315.074.019.065.074t.139.093A3.737,3.737,0,0,1,42.954,116.835ZM73.94,75.013a45.318,45.318,0,0,0,4.843-2.635,19.628,19.628,0,0,1,3.173-1.651,2.887,2.887,0,0,1,.4-.009.758.758,0,0,0,.343-.056,1.265,1.265,0,0,0,.4-.436,1.392,1.392,0,0,0,.269-.594q0-.26-.315-.26a2.534,2.534,0,0,0-1.095.26,35.785,35.785,0,0,0-7.737,4.991q-.315.3-.315.371Q73.9,75.013,73.94,75.013Zm4.1,13.007v-.111l-.019.111Zm-3.136,5.27q.074.019.074-.037,0-.074-.056-.074-.056-.019-.056.093Zm-.5.612q0-.019-.056-.019Zm-2.3,2.653q.056,0,.074-.111l-.019-.019a.152.152,0,0,0-.056.093Zm-.538.761q.148,0,.241-.371l-.019-.019q-.019,0-.13.121a.48.48,0,0,0-.13.213Q71.528,97.315,71.565,97.315Zm-1.67,1.8q.074,0,.167-.2,0-.037-.056-.037a.325.325,0,0,0-.148.2A.033.033,0,0,0,69.9,99.115Zm-2.616,2.728q.223,0,1.262-1.076.872-.909.872-1.225.019-.056,0-.074-.2,0-1.225,1.058Q67.279,101.49,67.279,101.843Zm-.427.427q.019,0,.019-.037a.075.075,0,0,0-.074.037Zm-.26.315q0-.074-.019-.074l-.019.037Q66.556,102.566,66.593,102.585Zm-.186.186.037-.037a.033.033,0,0,0-.037-.037q-.037,0-.037.074Zm-22.117-.2q.019-.037.037-.037v.019Zm-.353.353a3.029,3.029,0,0,0,.983-.649q.26-.241.26-.334,0-.037-.074-.037a.887.887,0,0,0-.5.2q-.779.538-.8.761Q43.808,102.919,43.938,102.919Zm-.538.427q.019,0,.093-.111,0-.056-.019-.056-.056,0-.074.111Zm21.282,1.113a2.425,2.425,0,0,0,.5-.408q.779-.724.8-1h-.056a3.859,3.859,0,0,0-.724.649,2.372,2.372,0,0,0-.538.742Zm-.408.353a.073.073,0,0,0,.074-.056q-.074-.019-.074.019Zm-21.523-.835a.161.161,0,0,0,.093-.046.546.546,0,0,0,.111-.139.389.389,0,0,0,.056-.2.152.152,0,0,0-.093.056.669.669,0,0,0-.186.315A.016.016,0,0,0,42.75,103.977Zm21.282,1.113.037-.037a.03.03,0,0,0-.019-.028q-.019-.009-.028,0a.073.073,0,0,0-.009.046Zm-.594.557q.167,0,.186-.2,0-.037-.056-.074-.13,0-.148.186Q63.42,105.646,63.438,105.646Zm-.445.39a.226.226,0,0,0,.148-.2.033.033,0,0,0-.037-.037q-.037,0-.13.13l-.037.093a.016.016,0,0,0,.019.019Zm-1.15,1.058q.13.019.631-.52.13-.13.111-.2a.7.7,0,0,0-.278.13q-.5.408-.52.538A.049.049,0,0,0,61.843,107.094ZM60.748,108a.2.2,0,0,0,.111-.037.409.409,0,0,0,.2-.148.066.066,0,0,0-.074-.074q-.093-.019-.241.148a.225.225,0,0,0-.056.111Zm-.3.278q.019,0,.019-.037-.037,0-.037.019A.016.016,0,0,0,60.451,108.281Zm-.13.111.019-.019h-.019Zm-2.728.891h.037q0-.019-.037-.037Zm.557.3q.111,0,.111-.074l-.019-.074q-.093.037-.093.111Zm-.52.427.037-.037a.016.016,0,0,0-.019-.019q-.074-.019-.074.019Zm-.575.371.019-.056-.019-.019q-.019,0-.019.037T57.056,110.378Zm-1.985,1.633q.093,0,.111-.111,0-.019-.037-.037-.093,0-.111.13Q55.033,112.011,55.07,112.011Zm-.575.371q.019,0,.037-.037,0-.074-.056-.074l-.019.074A.033.033,0,0,0,54.5,112.382Zm-1,.742a.148.148,0,0,0,.167-.167q0-.056-.074-.074a.115.115,0,0,0-.13.13Q53.456,113.124,53.493,113.124Zm-.687.408q.111.019.2-.13a.107.107,0,0,0-.019-.074.165.165,0,0,0-.2.167Q52.788,113.532,52.807,113.532Zm-.872.594q.2,0,.26-.241l-.037-.019a.256.256,0,0,0-.167.093q-.093.093-.093.13A.033.033,0,0,0,51.935,114.126Zm-.52.223q.056,0,.074-.093-.074,0-.093.037A.076.076,0,0,0,51.415,114.349Zm-.52.315q.111.019.111-.074l-.037-.037q-.111-.019-.111.074A.033.033,0,0,0,50.9,114.664Zm-.445.26h.037a.059.059,0,0,0-.037-.056q-.037,0-.037.019A.033.033,0,0,0,50.45,114.924Zm-1.837.167.019-.037a.059.059,0,0,0-.056-.037q0,.074.019.074Zm1.188.223q.241-.074.26-.223,0-.056-.074-.074-.056-.019-.158.056a.278.278,0,0,0-.121.167Q49.708,115.276,49.8,115.313Zm-.631.3a.049.049,0,0,0,.056-.056h-.074Q49.151,115.61,49.17,115.61Zm-.427.186q.2-.111.223-.2,0-.037-.056-.037-.2.074-.2.223Q48.706,115.8,48.743,115.8Zm-2.1.019q.037,0,.037-.019Zm-.557.2q.037,0,.037-.074-.019,0-.074.056Zm1.3.334a1.323,1.323,0,0,0,.353-.093q.371-.13.39-.186,0-.037-.074-.056a1.286,1.286,0,0,0-.26.037,1.2,1.2,0,0,0-.306.111.358.358,0,0,0-.176.167Zm-1.373.464a.03.03,0,0,1-.028-.019.03.03,0,0,0-.028-.019Q45.96,116.816,46.016,116.816Zm-.2.111v-.037Zm-6.457.2q.037,0,.056-.074,0-.056-.093-.056a.066.066,0,0,0-.074.074Q39.243,117.132,39.354,117.132Zm.26.074q.037,0,.037-.056,0-.093-.056-.093-.037,0-.037.074A.073.073,0,0,0,39.614,117.206Zm.835.056a1.249,1.249,0,0,0,.371-.019q.315-.037.315-.111,0-.093-.315-.111-.557-.019-.557.186Q40.264,117.262,40.449,117.262Zm.2,1.447a6.539,6.539,0,0,1-3.117-.983,4.667,4.667,0,0,1-2.561-4.268,5.239,5.239,0,0,1,.3-1.559,15.491,15.491,0,0,1,3.154-4.917,61.412,61.412,0,0,1,11.114-8.943q1-.631,1.967-1.3a57.95,57.95,0,0,1,6.179-3.822q.761-.408,1.5-.854,3.21-1.855,7.774-3.934a19.9,19.9,0,0,1,2.728-1.169q.093,0,.093.037t-.093.13a9.541,9.541,0,0,1-2.635,1.354q-.631.241-1.021.427A125.7,125.7,0,0,0,49.708,98.3l-.965.649q-3.08,2-3.08,2.449-.019.056.148.056a12.025,12.025,0,0,0,2.375-1.559q.353-.278.594-.445a121.158,121.158,0,0,1,11.318-6.9,107.242,107.242,0,0,1,13.3-6.179q.464-.186.928-.334a14.774,14.774,0,0,0,1.967-.779,2.323,2.323,0,0,1,.835-.278q.093,0,.093.074-.093.334-1.911.854-2.171.779-4.323,1.8-.668.315-1.354.594A89.708,89.708,0,0,0,51.972,98.15q-.854.649-1.707,1.262a18.315,18.315,0,0,0-2.616,2.041.724.724,0,0,1,.13-.074,5.325,5.325,0,0,0,.482-.315,3.077,3.077,0,0,1,.983-.557q.037,0,.019.093a5.1,5.1,0,0,1-1.262.946q-.5.3-.724.464a.016.016,0,0,0-.019.019q-.52.482-.761.668a42.694,42.694,0,0,0-7.867,7.793,12.65,12.65,0,0,0-1.512,2.449,4.951,4.951,0,0,0-.492,1.651q-.074,1.911,2.765,2.1.52.111.668.13.241,0,.631-.019.779-.037,1.058-.037l.538.037q.074,0,.074-.037.037-.13.26-.186l-.111.223q-.2.167-.2.223t.167.074a4.416,4.416,0,0,0,1.336-.278l1.039-.3a5.459,5.459,0,0,0,.668-.3l-.186-.019a4.04,4.04,0,0,0-1.095.2,1.675,1.675,0,0,1,.538-.241,4.808,4.808,0,0,1,1.021-.334,7.652,7.652,0,0,0,1.429-.464,5.351,5.351,0,0,1,.668-.26,7.79,7.79,0,0,0,2.5-1.317l.39-.13a10.649,10.649,0,0,0,2.857-1.688q.742-.5,1.466-.983.52-.353,1.188-.891a7.745,7.745,0,0,1,1.614-1.15h.186q.241-.427.334-.427.019,0,.019.037l-.019.167q.019.074.148.093.056.037.056.186t.093.148q.093,0,.315-.223a13.529,13.529,0,0,0,1.948-1.763,6.629,6.629,0,0,1,1.169-1.076,1.77,1.77,0,0,0,.649-.594q.148-.167.408-.408a7.042,7.042,0,0,0,1.15-1.076,27.916,27.916,0,0,1,2.171-2.189,29.487,29.487,0,0,0,2.783-2.969,25.382,25.382,0,0,1,2-2.245,41.373,41.373,0,0,0,4.824-5.919,13.69,13.69,0,0,1,1.262-1.614.016.016,0,0,0,.019-.019,1.74,1.74,0,0,0,.52-.854q0-.037-.019-.037-.148-.019-.677.724a3.824,3.824,0,0,1-.7.835,8.467,8.467,0,0,1,1.169-1.633,38.262,38.262,0,0,0,5.993-11.912,22.187,22.187,0,0,0,.891-3.952q.019-.315-.111-.315a.865.865,0,0,0-.427.334q-.241.334-.445.315-.26,0-.687-.52-.223-.371-.464-.371a1.355,1.355,0,0,0-.612.315q-.8.594-1.6,1.076-.408.223-1.132.705-2.041,1.243-3.989,2.653a19.228,19.228,0,0,1-1.893,1.206,4.987,4.987,0,0,1-2.375.946,1.371,1.371,0,0,1-.909-.52l-.056-.111a2.288,2.288,0,0,1-.408-1.262q.019-.557.835-1.132a5.259,5.259,0,0,0,.52-.445q.946-.854,1.967-1.651.854-.631,1.707-1.3,1.93-1.559,3.971-2.95A21.994,21.994,0,0,1,81.641,67.5a2.138,2.138,0,0,1,.854-.2,2.363,2.363,0,0,1,1.577.687q.464.5.687.5a.869.869,0,0,0,.38-.037.805.805,0,0,1,.362-.037,1.334,1.334,0,0,1,.482.111,1.1,1.1,0,0,1,.8,1.095,2.867,2.867,0,0,1-.232.863,6.79,6.79,0,0,0-.325,1.753,28.043,28.043,0,0,1-3.154,10.65,2.124,2.124,0,0,0-.26.779q-.019.167.2.167a2.875,2.875,0,0,0,.557-.186,11.27,11.27,0,0,1,3.173-.668l.186.019.019.037q0,.037-.362.158a8.371,8.371,0,0,1-1.085.25,11.751,11.751,0,0,0-2.783.668A5.629,5.629,0,0,0,81.6,85.663a4.737,4.737,0,0,1-.334.575,93.4,93.4,0,0,1-11.226,14.1A142.424,142.424,0,0,1,58.41,111.287a45.493,45.493,0,0,1-4.379,3.21,27.447,27.447,0,0,1-3.117,1.781,30.075,30.075,0,0,1-7.051,2.115A13.329,13.329,0,0,1,40.653,118.709Zm80.6-51.322q.148,0,.148-.111,0-.056-.074-.056t-.111.111Q121.218,67.387,121.255,67.387Zm-1.169.835q.074,0,.074-.056l-.019-.019a.12.12,0,0,0-.074.056A.016.016,0,0,0,120.086,68.222Zm-28.908,8.2q.5,0,3.915-2.468,2.078-1.54,2.913-2.022a4.7,4.7,0,0,0,1.132-.872.866.866,0,0,0,.241-.482q0-.26-.649-.39h-.148a3.77,3.77,0,0,0-2.171,1.188,28.274,28.274,0,0,0-5.177,4.75.507.507,0,0,0-.13.241Q91.1,76.423,91.178,76.423ZM95.965,86.98a2.531,2.531,0,0,1-2.041-.965,3.25,3.25,0,0,1-.705-2.078,5.139,5.139,0,0,1,.612-2.282,36.816,36.816,0,0,1,3.544-5.511q2.282-3.006,2.282-3.451a.1.1,0,0,0-.111-.111q-.482,0-3.191,2.134-1.039.909-2.134,1.837-2.913,2.468-4.62,2.468a.894.894,0,0,1-.779-.464,2.035,2.035,0,0,1-.39-1.225,1.877,1.877,0,0,1,.8-1.354l2.115-2.189a49.671,49.671,0,0,1,4.379-4.156,7.2,7.2,0,0,1,1.744-1.113,2.5,2.5,0,0,1,1.5.093,3.673,3.673,0,0,1,.835.417,2.535,2.535,0,0,1,.575.733q.315.408.594.408a1.286,1.286,0,0,0,.724-.371,2.778,2.778,0,0,1,1.559-.761,1.034,1.034,0,0,1,.631.223.588.588,0,0,1,.2.408,1.04,1.04,0,0,1-.445.687,5.545,5.545,0,0,0-.854,1.3,10.859,10.859,0,0,1-.631,1.095q-3.488,4.639-3.785,5.065-3.618,5.084-3.618,6.7,0,.687.761.687a6.316,6.316,0,0,0,2.542-.668,20.655,20.655,0,0,0,2.69-1.429,78.407,78.407,0,0,0,7.552-5.937q1.076-.891,2.115-1.837a39.771,39.771,0,0,1,5.158-4.1A10.259,10.259,0,0,0,117.47,69.8a21.557,21.557,0,0,1,2.6-2.282q5.938-4.472,7.849-4.472a1.16,1.16,0,0,1,.946.464,2.191,2.191,0,0,1,.371,1.206,5.223,5.223,0,0,1-1.429,2.8q-.779.965-1.559,1.837-.39.427-.705.8-.891,1.039-1.8,2.06a55.8,55.8,0,0,0-4.936,6.086,4.144,4.144,0,0,0-.816,1.837q0,.371.353.371a2.26,2.26,0,0,0,.854-.278,51.023,51.023,0,0,0,5.307-3.266q3.154-2.1,3.451-2.264a14.581,14.581,0,0,1,2.115-1.187,8.7,8.7,0,0,1,3.4-.946,3.427,3.427,0,0,1,1.317.26,3.48,3.48,0,0,1,1.67,1.93l.26.668a5.424,5.424,0,0,0,.946,1.855,2.1,2.1,0,0,0,1.707.687,7.339,7.339,0,0,0,2.895-.742,61.933,61.933,0,0,0,6.346-3.377,27.071,27.071,0,0,0,2.783-1.763,1.082,1.082,0,0,1,.427-.2q.037,0,.037.056,0,.2-.557.854a25.168,25.168,0,0,1-5.028,3.934q-4.379,2.839-6.587,2.839-2.839,0-3.878-3.377-.612-2.022-1.206-2.06l-.371-.019a4.64,4.64,0,0,0-1.336.241,30.033,30.033,0,0,0-7.626,3.971q-.631.427-1.41,1.021-3.507,2.765-5.511,2.765a4.638,4.638,0,0,1-.575-.037q-1.354-.427-1.392-1.048t-.037-.733q0-2.134,3.284-5.529,1.336-1.392,4.23-4.917,1.688-2.06,3.1-4.156a2.42,2.42,0,0,0,.464-.946q0-.167-.148-.167a1.651,1.651,0,0,0-.687.26,56.5,56.5,0,0,0-9.519,6.605L115,73.213q-1.28,1.076-2.542,2.189-3.173,2.913-10.929,9.092a15.5,15.5,0,0,1-2.588,1.753A6.191,6.191,0,0,1,95.965,86.98ZM230.616,69q-.037-.019-.046-.009a.108.108,0,0,0-.019.028q-.009.019,0,.019a.071.071,0,0,0,.028-.009A.145.145,0,0,0,230.616,69Zm-.278.315q.019.037.046.028a.089.089,0,0,0,.046-.037.3.3,0,0,1,.037-.046q.056-.111.046-.139t-.056,0a.314.314,0,0,0-.083.074A.187.187,0,0,0,230.338,69.316Zm-.037.074a.214.214,0,0,0-.046.028.038.038,0,0,0-.009.028q0,.019.009.019a.071.071,0,0,0,.028-.009Q230.3,69.446,230.3,69.391Zm-.223.353v-.019l.056-.056a.291.291,0,0,0,.056-.074.142.142,0,0,0,.019-.056q-.019-.019-.056,0a.121.121,0,0,0-.056.056l-.037.074a.149.149,0,0,0-.019.065Q230.041,69.762,230.078,69.743Zm-.111.111h.028a.008.008,0,0,0,.009-.009.033.033,0,0,0-.028-.028.008.008,0,0,0-.009.009ZM221,72.545q.019-.037-.019-.037a.123.123,0,0,0-.065.009q-.009.009,0,.028a.06.06,0,0,0,.037.028Q220.986,72.582,221,72.545Zm1.243.223h.019a.709.709,0,0,0,.148-.1.2.2,0,0,0,.074-.158.158.158,0,0,0-.148,0,.582.582,0,0,0-.148.111.682.682,0,0,0-.111.139q-.037.065,0,.074T222.248,72.768Zm-.241.223v-.019q.019-.019.019-.028v-.028a.129.129,0,0,0-.056.009.046.046,0,0,0,0,.074A.03.03,0,0,0,222.007,72.99Zm-2.6,1.781q.037,0,.046-.019t0-.019a.027.027,0,0,0-.019.009Zm-.538.353.019-.019a.082.082,0,0,0,.037-.009.03.03,0,0,0,.019-.028.1.1,0,0,0-.074-.009.118.118,0,0,0-.056.028q-.019.019-.009.028A.123.123,0,0,0,218.871,75.124Zm-.315.223h0Zm-.148.093q-.019-.019-.028-.019a.009.009,0,0,0,0,.019h.028Zm-.167.13Zm-.241.167a.016.016,0,0,0,.019-.019h0V75.7h0a.129.129,0,0,0-.056.009q-.019.009-.019.019t.019.019A.03.03,0,0,0,218,75.736Zm-.408.241h0Zm-.575.39Zm-.427.3h.056q.019,0,.009-.009l-.019-.019a.038.038,0,0,0-.028-.009q-.019,0-.019.009Zm-.742.52a.293.293,0,0,0-.186.111q-.056.074-.037.1t.065,0a.488.488,0,0,0,.093-.074.459.459,0,0,0,.083-.121Zm-.594.538V77.7a.09.09,0,0,0,.046-.019.1.1,0,0,0,.037-.037.03.03,0,0,0-.009-.037.037.037,0,0,0-.056-.019.184.184,0,0,0-.065.056.072.072,0,0,0-.019.065Q215.2,77.74,215.253,77.722Zm-.687.278a.166.166,0,0,1-.028.083.316.316,0,0,0-.037.083.045.045,0,0,0,.028.056.079.079,0,0,0,.1-.037.391.391,0,0,0,.037-.121.106.106,0,0,0-.019-.093Q214.622,77.944,214.566,78Zm-.649.575q-.019,0-.028.028a.152.152,0,0,0-.009.037q0,.009.037.009a.159.159,0,0,0,.093-.046.046.046,0,0,0,.009-.046.037.037,0,0,0-.037-.019A.1.1,0,0,0,213.917,78.575Zm-.52.315a.116.116,0,0,0-.028.046l-.019.056q-.009.028.009.028a.077.077,0,0,0,.083-.009.1.1,0,0,0,.028-.074.091.091,0,0,0-.019-.065Q213.435,78.854,213.4,78.891Zm-.353.26a.113.113,0,0,0-.083.028.089.089,0,0,0-.028.065q.037.074.074.074a.08.08,0,0,0,.065-.037.136.136,0,0,0,.028-.083Q213.1,79.15,213.045,79.15Zm-1.206.928q-.019.019-.028.019a.008.008,0,0,0-.009.009v.009a.164.164,0,0,0,.1.028.06.06,0,0,0,.037-.028q.009-.019-.019-.037A.1.1,0,0,0,211.839,80.078Zm-.649.464.019.009a.03.03,0,0,0,.037-.009q.019-.019.009-.028a.108.108,0,0,0-.028-.019.039.039,0,0,0-.037,0Q211.171,80.5,211.189,80.542Zm-1.5,1h-.019a.039.039,0,0,0,.065.028.012.012,0,0,0,0-.019A.073.073,0,0,0,209.687,81.544Zm-.408.353.019-.009a.082.082,0,0,1,.037-.009q.019-.019,0-.028a.039.039,0,0,0-.037,0l-.037.019q-.019.009-.019.019T209.278,81.9Zm-.223.13h.019a.145.145,0,0,1,.037-.028.03.03,0,0,0,.019-.028q0-.019-.009-.019a.1.1,0,0,0-.037.019.3.3,0,0,0-.046.037q-.019.019-.019.028T209.056,82.026Zm-.445.278a.206.206,0,0,0,.065-.009.043.043,0,0,0,.028-.046q.037-.037.019-.046a.06.06,0,0,0-.046,0,.234.234,0,0,0-.056.028q-.028.019-.028.037A.053.053,0,0,0,208.61,82.3Zm3.674-3.414a.016.016,0,0,0-.019.019q-.074.074-.139.13a.873.873,0,0,1-.176.111,2.482,2.482,0,0,0-.464.3q-.093.074-.2.148-.8.557-1.6,1.095-.13.093-.39.26-.371.223-.816.52t-.8.566a1.986,1.986,0,0,0-.445.417q-.056.111-.019.13a.132.132,0,0,0,.111-.019,1.481,1.481,0,0,0,.158-.093.833.833,0,0,0,.121-.093h0q.334-.223.631-.445a7.4,7.4,0,0,1,.705-.52l.557-.315a5.464,5.464,0,0,0,.835-.52,3.57,3.57,0,0,1,.557-.371,1.813,1.813,0,0,0,.464-.3,4.738,4.738,0,0,1,.52-.39,4.971,4.971,0,0,0,.575-.464.494.494,0,0,0,.111-.167.223.223,0,0,0,.019-.148q-.019-.056-.083-.037A.651.651,0,0,0,212.284,78.891Zm-4.9,4.249a.046.046,0,0,0,.074,0h0q.074-.056.074-.083t-.037-.028a.123.123,0,0,0-.074.028A.1.1,0,0,0,207.386,83.14Zm10.057.464q-.037.037-.037.046T217.442,83.6Zm-10.706.056v0Zm10.558.111a.09.09,0,0,0-.046.019.3.3,0,0,0-.046.037.044.044,0,0,0,.037.046.064.064,0,0,0,.065-.019.2.2,0,0,0,.037-.046Q217.35,83.789,217.294,83.771Zm-11.04.186.019-.009a.03.03,0,0,0,.019-.028V83.9h-.037q-.26.093-.25.148T206.254,83.956Zm-.315.186-.009-.009a.012.012,0,0,0-.019,0l-.009.009.009.009Q205.92,84.16,205.938,84.142Zm-.315.223-.019-.019-.009.009-.009.009h.037Zm.13-.983q-.371.241-.742.464-.371.2-.742.445-.037.037-.13.121a.6.6,0,0,0-.139.176q-.046.093.028.13a.767.767,0,0,0,.241-.093,4.63,4.63,0,0,0,.417-.241q.232-.148.427-.278t.269-.186q.186-.13.52-.353.371-.223.705-.455a1.914,1.914,0,0,0,.427-.362q.056-.13-.046-.1a1.618,1.618,0,0,0-.306.139q-.2.111-.408.241t-.362.241Zm-.891,1.521a.053.053,0,0,0-.037-.019.153.153,0,0,0-.046.009.153.153,0,0,1-.046.009q-.074.037-.074.056t.037.028a.135.135,0,0,0,.083-.009A.187.187,0,0,0,204.862,84.9Zm-.464.26-.019.019h-.009a.008.008,0,0,0-.009.009V85.2a.085.085,0,0,0,.065.009.1.1,0,0,0,.037-.019q.009-.009-.009-.019A.129.129,0,0,0,204.4,85.162Zm11,1.466q.019-.019.083-.093a1.161,1.161,0,0,0,.111-.148q.046-.074.028-.111a.34.34,0,0,0-.13.1,1.528,1.528,0,0,0-.13.167.271.271,0,0,0-.056.121Q215.309,86.7,215.4,86.628Zm-.445.612a.287.287,0,0,0,.223-.186q.056-.111.037-.13t-.065.019a1.264,1.264,0,0,0-.1.093.385.385,0,0,0-.083.121Q214.938,87.222,214.956,87.24Zm-14.417.334q0-.019-.009-.019h-.019a.009.009,0,0,0,0,.019Zm14.194-.019a.358.358,0,0,0-.148.186q-.037.093-.028.1t.056-.037a.667.667,0,0,0,.083-.1.569.569,0,0,0,.056-.1Q214.771,87.556,214.733,87.556Zm-14.955.557h.019l.009.009.009.009a.03.03,0,0,0,.009-.037.03.03,0,0,0-.028-.019h-.028a.008.008,0,0,0-.009.009Q199.76,88.094,199.778,88.112Zm14.436.13a.206.206,0,0,1-.009.065.042.042,0,0,0,.009.046q.019.019.056-.019.111-.056.121-.121t-.037-.074Q214.307,88.131,214.214,88.242Zm-15.883.687a.038.038,0,0,1,.028.009l.009.009h.019a.038.038,0,0,0-.009-.028l-.019-.019a.012.012,0,0,0-.019,0l-.009.009Zm-.186.056.009-.019a.082.082,0,0,0,.009-.037q-.019-.019-.028-.009a.108.108,0,0,0-.019.028.082.082,0,0,0-.009.037.038.038,0,0,0,.009.028Q198.127,89.021,198.146,88.984Zm15.549.241Zm-15.864,0Zm15.642.315a.215.215,0,0,1,.028-.046q.009-.009,0-.009a.027.027,0,0,0-.019.009A.073.073,0,0,0,213.472,89.541Zm-.093.2ZM248.447,15.1q-8.053-.39-19.909,6.837a139.643,139.643,0,0,0-23.685,18.555,140.044,140.044,0,0,0-19.77,23.221q-7.941,11.894-8.164,20.837,0,.241-.009.4t-.009.288q-.019.167-.019.557a10.061,10.061,0,0,0,.687,3.767q2.245,6.309,8.795,5.01a30.937,30.937,0,0,0,9.574-3.6q.575-.334,1.188-.631.742-.39,1.429-.8.854-.538.807-.705t-1.03.427q-.965.594-1.967,1.132-.5.278-1.085.594t-1.1.538a3.612,3.612,0,0,1-.52.158q-.223.046-.2-.037t.445-.38a7.856,7.856,0,0,0,.8-.594,8.179,8.179,0,0,1,.946-.705.975.975,0,0,0,.148-.093q.445-.278.946-.575a8.454,8.454,0,0,1,.928-.482.711.711,0,0,1,.158-.046.767.767,0,0,1,.1-.009.39.39,0,0,0,.093-.009.23.23,0,0,0,.093-.065,5.116,5.116,0,0,1,1.6-1.169,1.206,1.206,0,0,0,.334-.158q.111-.083.2-.158a1.416,1.416,0,0,1,.334-.26q.26-.148.371-.2a1,1,0,0,0,.25-.111,3.417,3.417,0,0,0,.362-.278,7.524,7.524,0,0,1,.891-.557q.52-.3.946-.575a1.457,1.457,0,0,0,.482-.408q0-.111-.121-.065a1.539,1.539,0,0,0-.288.158q-.167.111-.3.2-.093.056-.13.074a16.357,16.357,0,0,0-3.136,2.022.216.216,0,0,1-.056-.037.163.163,0,0,0-.046-.019.071.071,0,0,0-.028.009.264.264,0,0,0-.056.046l-.074.056q-.445.334-1.03.7a11.857,11.857,0,0,1-1.085.6q-.371.186-.64.343t-.529.325q-.186.13-.408.26a3.63,3.63,0,0,1-.371.223q-.148.074-.334.148-.093.037-.223.093-.148.074-.3.167a1.259,1.259,0,0,1-.353.167,2.382,2.382,0,0,0-.371.121,2.3,2.3,0,0,0-.3.158,1.829,1.829,0,0,0-.241.148,9.085,9.085,0,0,1-1.021.427,6.051,6.051,0,0,0-1.187.538l-.019.019a.852.852,0,0,1-.26.13,1.309,1.309,0,0,0-.482.2l-.223.111a18.542,18.542,0,0,1-3.878,1.206,9.684,9.684,0,0,1-2.8.148,5.626,5.626,0,0,1-4.509-3.655,9.917,9.917,0,0,1-.742-5.418q1.707-10.632,10.483-22.869a143.763,143.763,0,0,1,20.735-23.008,126.709,126.709,0,0,1,23.2-16.978q11.244-6.207,17.887-4.759l.111.037a5.433,5.433,0,0,1,3.655,2.5,10.246,10.246,0,0,1,.028,8.377,19.294,19.294,0,0,1-4.7,7.3,5.45,5.45,0,0,1-.52.353,2.514,2.514,0,0,0-.612.445.993.993,0,0,0-.278.687l.019.148q.093.594.547.659a1.266,1.266,0,0,0,.9-.232,11.789,11.789,0,0,0,2.468-2.514,26.056,26.056,0,0,0,1.967-2.978,18.212,18.212,0,0,0,2.208-7.645,8.2,8.2,0,0,0-2.728-7.088A9.635,9.635,0,0,0,248.447,15.1ZM209.631,95.182q-.019.019-.019.028a.027.027,0,0,0,.009.019.038.038,0,0,0,.028.009q.037,0,.046-.019a.039.039,0,0,0,0-.037.03.03,0,0,0-.028-.019A.053.053,0,0,0,209.631,95.182Zm-.724,1.41a.033.033,0,0,0,.037-.037.03.03,0,0,0-.019-.028q-.019-.009-.028,0a.038.038,0,0,0-.009.028v.028Q208.889,96.592,208.907,96.592Zm-5.715,12.3q-.019-.019-.028-.009l-.028.028a.142.142,0,0,0-.019.056.016.016,0,0,0,.019.019.082.082,0,0,0,.037-.009.06.06,0,0,0,.028-.037A.042.042,0,0,0,203.192,108.894Zm-.186.742a.107.107,0,0,0-.019.074q.019.019.019.028t.009-.009a.1.1,0,0,0,.009-.046v-.037Q203.025,109.636,203.007,109.636Zm-.111,1.911v.037a.053.053,0,0,0,.019-.037v-.028q0-.009-.009,0A.038.038,0,0,0,202.9,111.547Zm20.726-40.932q.056,0,.065.019a.039.039,0,0,1,0,.037.061.061,0,0,1-.028.028.03.03,0,0,1-.037-.009Q223.6,70.671,223.621,70.615Zm-2.728,2.672q.056,0,.056.028a.1.1,0,0,1-.037.065q-.056.074-.1.074t-.046-.037a.166.166,0,0,1,.028-.083A.109.109,0,0,1,220.894,73.287ZM203.1,110.656a6.254,6.254,0,0,0,.241,3.062v.019a2.542,2.542,0,0,1,.13.26,5.718,5.718,0,0,0,.928,1.215,2.3,2.3,0,0,0,1.317.7,4.877,4.877,0,0,0,1.429-.028,1.749,1.749,0,0,0,1.206-.64q.13-.223-.009-.306a.851.851,0,0,0-.427-.083,3.783,3.783,0,0,0-.584.046q-.3.046-.5.083a.782.782,0,0,1-.13.019,1.864,1.864,0,0,1-2.152-1.215,6.488,6.488,0,0,1-.371-2.737,23.289,23.289,0,0,1,2.82-7.96q.816-1.614,1.707-3.191,1.614-2.913,3.377-5.715l.13-.2q.557-.891,1.113-1.8,1.021-1.651,2.078-3.266.315-.464.649-.909.167-.223.334-.464.464-.649.854-1.317.334-.557.724-1.132.2-.315.427-.649.52-.779,1.039-1.5l.816-1.076q1.41-1.855,2.8-3.767.946-1.317,1.948-2.616.594-.742,1.206-1.447.816-.928,1.521-1.893a24.454,24.454,0,0,1,1.577-1.911q.668-.761,1.3-1.559a3.75,3.75,0,0,0,.223-.334q.13-.186.269-.39l.241-.353q.1-.148.158-.167.093-.037.046.074a2.361,2.361,0,0,1-.167.306q-.121.195-.288.417-.186.26-.306.445t-.065.2q.037,0,.158-.148t.269-.353q.148-.2.26-.371t.13-.2a1.7,1.7,0,0,0,.186-.417.7.7,0,0,0,.019-.269,1.089,1.089,0,0,1,.019-.195.646.646,0,0,1,.13-.25,3.608,3.608,0,0,0,.241-.334,2.208,2.208,0,0,0,.278-.38,3.574,3.574,0,0,0,.241-.566q.26-.816.037-1.095a1.473,1.473,0,0,0-1.058-.315,4.83,4.83,0,0,0-1.113.111,3.682,3.682,0,0,1-1.095.111,3.6,3.6,0,0,0-.677-.009,5.668,5.668,0,0,0-.566.083q-.278.056-.668.111a7.507,7.507,0,0,0-1.5.3q-.371.111-.872.223-1,.2-1.985.445-2.189.52-4.342.872-.26.037-.52.093-2.319.39-4.676.687-2.1.26-4.175.612-.26.037-.575.056a4.267,4.267,0,0,0-1.243.241.8.8,0,0,0-.52.891q.13.909.733.937a2.477,2.477,0,0,0,1.271-.325,1.213,1.213,0,0,0,.13-.074q.371-.186.622-.288a3.41,3.41,0,0,1,.714-.176l1.781-.334,2.227-.408,1.039-.186q.779-.13,1.559-.278.538-.13,1.076-.3a8.687,8.687,0,0,1,1.262-.334q1.039-.167,2.06-.427l.965-.223q.909-.2,1.818-.427.482-.111.946-.223.575-.111,1.15-.26a1.942,1.942,0,0,0,.315-.111,12.615,12.615,0,0,1,1.271-.371,1.724,1.724,0,0,1,1.1.019q.464.3.083.835a5.29,5.29,0,0,1-1.048,1.067q-.668.529-1.058.789-.074.056-.13.093-.241.223-.371.353a2.681,2.681,0,0,1-.371.343q-.186.139-.594.38a1.786,1.786,0,0,0-.482.39,1.969,1.969,0,0,1-.408.334,2.1,2.1,0,0,0-.445.334.331.331,0,0,1-.093.093,6.04,6.04,0,0,1-.538.445.7.7,0,0,0-.223.26.413.413,0,0,1-.1.13.52.52,0,0,1-.195.093,1.609,1.609,0,0,0-.362.13.982.982,0,0,0-.288.26q-.111.148-.223.278a2.663,2.663,0,0,1-.417.38q-.176.121-.343.213a1.678,1.678,0,0,0-.52.353.731.731,0,0,1-.158.1q-.065.028-.1.046a.72.72,0,0,0-.093.037.2.2,0,0,0-.074.093q-.093.13-.148.2a1.159,1.159,0,0,1-.111.158.954.954,0,0,1-.139.13q-.083.065-.25.176-1.688,1.15-3.358,2.338-.464.334-.946.649-.816.557-1.614,1.15-.056.037-.148.111-.2.13-.455.325t-.455.371a.906.906,0,0,0-.241.269q-.019.148.148.1a1.682,1.682,0,0,0,.417-.2q.25-.158.492-.334t.39-.288a.528.528,0,0,1,.111-.093,1.679,1.679,0,0,0,.3-.3.786.786,0,0,1,.2-.2,2.241,2.241,0,0,0,.232-.13q.083-.056.176-.13.093-.056.2-.13,1.744-1.113,3.433-2.375a1.083,1.083,0,0,1,.111-.093l.408-.315a3.469,3.469,0,0,1,.445-.3q.2-.111.269-.028t-.121.455a.954.954,0,0,0,.52-.334.216.216,0,0,1,.056-.037,2.294,2.294,0,0,1,.39-.315,1.858,1.858,0,0,0,.38-.288.829.829,0,0,0,.213-.436.471.471,0,0,1,.13-.3,2.423,2.423,0,0,1,.26-.223l.148-.074a.737.737,0,0,0,.111-.093,1.791,1.791,0,0,1,.3-.2.354.354,0,0,1,.278-.056.291.291,0,0,1,.056.074.165.165,0,0,1,.019.074.606.606,0,0,0,.037.065q.019.028.083.009a.723.723,0,0,0,.186-.1q.121-.083.343-.25t.427-.315a4.433,4.433,0,0,0,.39-.278.633.633,0,0,1,.13-.13,2.22,2.22,0,0,1,.241-.241.248.248,0,0,1,.241-.074q.13.074.009.232a1.363,1.363,0,0,1-.353.306q-.232.148-.38.26a.428.428,0,0,0-.111.056l-.093.074q-.687.52-1.354,1.039-1.15.891-2.338,1.688-1.744,1.187-3.433,2.394-.408.3-.854.575a21.848,21.848,0,0,0-1.781,1.28,15.972,15.972,0,0,1-1.466,1.132q-.761.52-1.54,1.058-1.354.909-2.653,1.837-.557.39-1.132.742-.5.334-1,.687a1.689,1.689,0,0,0-.26.186q-.724.482-1.336.946l-.111.093a3.021,3.021,0,0,1-.705.408,2.509,2.509,0,0,0-.687.371q-.52.371-1.021.687-.13.093-.278.186-.371.241-.761.482-.2.13-.464.278-.575.315-.983.594l-.046.046q-.046.046-.111.1a.556.556,0,0,0-.1.111q-.037.056-.028.083t.1.009a4.419,4.419,0,0,0,.668-.362q.538-.325,1.132-.7l.891-.557a.291.291,0,0,1,.074-.056q.445-.278.891-.538.594-.353,1.15-.724.594-.427,1.206-.8.742-.464,1.447-.983.816-.594,1.6-1.113.464-.3.909-.612.649-.445,1.317-.891l2.375-1.633q.371-.278.761-.52.408-.26.8-.538.52-.39,1.039-.761.779-.575,1.6-1.15,1.095-.779,2.245-1.54A52.229,52.229,0,0,0,224.4,71.9a.976.976,0,0,0,.148-.186,1.229,1.229,0,0,1,.148-.158.367.367,0,0,1,.186-.083,1.37,1.37,0,0,1,.482-.39,1.145,1.145,0,0,0,.2-.13h0q.074-.074.325-.269t.52-.39a2.411,2.411,0,0,1,.445-.269q.176-.074.139.111a3.945,3.945,0,0,1-.325.52q-.213.3-.417.575-.111.13-.186.223-.631.835-1.262,1.633-.946,1.225-1.893,2.486-.3.39-.612.8-.631.8-1.187,1.577-.594.909-1.169,1.818-.334.52-.668,1.058-.2.278-.482.687-.39.538-.751,1.095a3.853,3.853,0,0,0-.473.928,4.533,4.533,0,0,1-.835,1.559l-.3.445q-1,1.521-2.022,3.024-.5.742-.983,1.466-.278.408-.538.8A35.481,35.481,0,0,0,210.5,94.7q-.371.705-.742,1.3-.167.278-.353.594-.779,1.373-1.559,2.765-.965,1.781-1.763,3.563-.315.705-.668,1.429a29.634,29.634,0,0,0-1.262,3.136l-.371.928A7.394,7.394,0,0,0,203.1,110.656Zm46.127-25.55a3.47,3.47,0,0,1-2.69-1.225,5.249,5.249,0,0,1-1.466-3.655,7.709,7.709,0,0,1,.594-2.95,20.284,20.284,0,0,1,1.132-2.338,9.175,9.175,0,0,0,1.188-2.653q0-.223-.241-.223a4.881,4.881,0,0,0-1.67.872l-1.132.668a15.714,15.714,0,0,0-1.781,1.317q-.742.594-1.763,1.336-3.47,2.653-5.307,2.653a2.256,2.256,0,0,1-1.661-1.058,3.331,3.331,0,0,1-.473-1.651,5.815,5.815,0,0,1,1.336-3.191q.965-1.317,2.041-2.523.649-.742,1.169-1.41.575-.816,1.095-.816a1.238,1.238,0,0,1,.649.223,1.06,1.06,0,0,1,.538.816,1.539,1.539,0,0,1-.445.965q-.649.761-1.837,2-.557.594-.649.668a9.357,9.357,0,0,0-2.022,2.857,2.584,2.584,0,0,0-.2.854q0,.557.52.557a2.716,2.716,0,0,0,.724-.13,24.3,24.3,0,0,0,4.268-2.227q.557-.353,2.95-1.744,1.93-1.15,2.217-1.3a2.516,2.516,0,0,0,.464-.3,2.346,2.346,0,0,0,.417-.538,1.462,1.462,0,0,1,.612-.464,2.231,2.231,0,0,0,.612-.334,1.434,1.434,0,0,1,.761-.334q.315,0,.733.538a1.82,1.82,0,0,1,.417,1.132,4.686,4.686,0,0,1-.946,2.264,18,18,0,0,0-1.141,2.134,13.006,13.006,0,0,0-.733,1.8,9.115,9.115,0,0,0-.909,3.507,3.8,3.8,0,0,0,.037.538,1.759,1.759,0,0,0,1.095,1.429,4.428,4.428,0,0,0,1.373.223,4.807,4.807,0,0,0,1.095-.13q5.158-1.3,12.8-7.979a21.029,21.029,0,0,0,2.189-2.022.121.121,0,0,1,.056-.056q1.651-1.985,2-2.022a.217.217,0,0,1,.186.241,2.615,2.615,0,0,1-.371,1.039,3.808,3.808,0,0,1-.2.371,34.681,34.681,0,0,1-7.385,7.014,30.843,30.843,0,0,1-8.591,4.917A4.328,4.328,0,0,1,249.227,85.106Zm22.8-21.022q-.371-.037-.891-1.039a3.361,3.361,0,0,1-.52-1.3l.019-.223q.056-.445.724-.353.464.074.918.176a7.752,7.752,0,0,0,.77.139,14.84,14.84,0,0,0,2.561.074,3.228,3.228,0,0,1,.649.037q.816.093.761.612a1.672,1.672,0,0,1-.993.733,15.22,15.22,0,0,1-1.549.436,6.844,6.844,0,0,0-1.559.473A1.75,1.75,0,0,1,272.03,64.084ZM245.7,91.174a.073.073,0,0,1-.056-.074l.093.037Zm-4.175,1.651q-.037,0-.056-.056.019-.074.13-.074.037,0,.019.037A.082.082,0,0,1,241.526,92.825Zm-2.06.983-.037-.037q0-.037.037-.019.037,0,.037.019Q239.485,93.809,239.467,93.809Zm-7.5,4.1q-.148-.019-.148-.074t.2-.056q.037.019.019.074A.291.291,0,0,1,231.971,97.909Zm-.371.167q-.056-.019-.056-.056,0-.074.093-.074a.086.086,0,0,1,.056.093A.126.126,0,0,1,231.6,98.076Zm-13.007,11.1.037-.074v.056Zm-.3.427a.037.037,0,0,1,0-.074q.019,0,.037.056Zm-.3.334q-.019,0,0-.019l.037-.074h.037Q218.036,109.933,218,109.933Zm28.426-18.2q.037,0,.037-.056.019-.037-.056-.056a.12.12,0,0,0-.074.056A.109.109,0,0,0,246.425,91.73Zm-2.542.891.019-.056q0-.037-.019-.037-.037,0-.056.074,0,.019.037.019Zm-.3.019V92.6a.016.016,0,0,0-.019.019Zm9.352,1.058q.037,0,.121-.121a.581.581,0,0,0,.1-.232.109.109,0,0,0-.1.046q-.028.046-.046.046a.668.668,0,0,0-.111.2Q252.919,93.7,252.938,93.7Zm-9.89-.761.019-.056h-.056Q243.011,92.937,243.048,92.937Zm-.427.241a.033.033,0,0,0-.037-.037v.019Zm9.055,1.93q.074,0,.371-.26a1.773,1.773,0,0,0,.464-.649q.019-.056-.019-.056-.111-.019-.557.5A1.2,1.2,0,0,0,251.676,95.107Zm-.315.278h.056a.059.059,0,0,0-.037-.056l-.037.019Zm-11.6-.928.019-.019-.074.019Zm.5-.056a.3.3,0,0,0,.121-.046q.083-.046.083-.065a.016.016,0,0,0-.019-.019.123.123,0,0,0-.074.028.241.241,0,0,1-.065.037.153.153,0,0,1-.046.009Zm-.538.353q.019,0,.037-.037Q239.745,94.718,239.727,94.755Zm9.222,3.08a2.849,2.849,0,0,0,.983-.835q.353-.39.353-.52.019-.019-.019-.037a1.949,1.949,0,0,0-.557.427Q248.985,97.538,248.948,97.835Zm-.779.315h.037l-.056-.019Zm-4.824,4.769.056-.019a.033.033,0,0,0-.037-.037q-.037,0-.037.019Q243.308,102.919,243.345,102.919Zm-.39.3q.037.019.056-.074-.056-.019-.074.074Zm-.687.649q.241-.019.26-.223.019-.037-.019-.037-.037-.019-.186.074a.178.178,0,0,0-.111.148Q242.213,103.847,242.269,103.865Zm-14.51-1.688a.18.18,0,0,0,.074-.111.131.131,0,0,0-.111.111Zm-.668.52q.093.019.186-.148v-.037A.237.237,0,0,0,227.091,102.7Zm14.231,1.985q.093.019.167-.186a.274.274,0,0,0-.2.148A.033.033,0,0,0,241.322,104.682Zm-.241.26q.056,0,.074-.074-.019-.056-.037-.056a.119.119,0,0,0-.093.093Q241.025,104.923,241.081,104.941Zm-.2.186q.056,0,.056-.037l-.037-.019a.191.191,0,0,0-.074.037Q240.821,105.127,240.877,105.127Zm-15.734-1.874q.056,0,.074-.093Q225.2,103.16,225.143,103.253ZM240.45,105.5q.074,0,.093-.13l-.056-.019q-.056,0-.056.074Q240.413,105.5,240.45,105.5Zm-16.569-1.577.037-.074q-.037,0-.056.074Zm15.753,2.375q.019,0,.019-.056l-.019-.037a.216.216,0,0,0-.056.037Q239.6,106.3,239.634,106.3Zm-15.79-2.041a1.208,1.208,0,0,0,.343-.2q.288-.2.288-.3a.023.023,0,0,0,0-.037,1.744,1.744,0,0,0-.482.315q-.167.13-.167.186A.053.053,0,0,0,223.844,104.255Zm-3.024,3.08-.019-.019v.019Zm-1.021.649v-.056q-.019-.019-.019.019h-.019Zm12.228,5.065a.918.918,0,0,0,.241-.13,23.826,23.826,0,0,0,2.542-1.911,78.607,78.607,0,0,0,6.587-5.622,19.163,19.163,0,0,1,2.022-1.911.84.84,0,0,1,.148-.148,57.237,57.237,0,0,0,4.193-4.175,2.851,2.851,0,0,0,.334-.482q.019-.056-.019-.056-.093-.019-.724.649l-2.06,2.171q-.8.779-1.67,1.521-.223.186-1.661,1.484a6.368,6.368,0,0,1-1.642,1.28.15.15,0,0,1-.093-.028.123.123,0,0,0-.074-.028q-.093-.019-.13.334a2.744,2.744,0,0,1-.854,1.058,3.054,3.054,0,0,0-.371.334,10.608,10.608,0,0,1-2.078,1.67q-.52.353-2.041,1.614a19.727,19.727,0,0,0-2.672,2.356A.016.016,0,0,0,232.026,113.05Zm-.724.186.019-.037v-.037q-.019,0-.037.037Q231.284,113.235,231.3,113.235Zm.037.278a.052.052,0,0,0,.074-.037q-.056-.019-.074.019Zm-.928.39h.037v-.019q-.037-.019-.056,0Zm-.315.223q.074.019.074-.019a.049.049,0,0,0-.056-.056l-.056.019Q230.06,114.126,230.1,114.126Zm-.445.315.037-.037-.037-.019-.019.037A.016.016,0,0,0,229.651,114.441Zm.315.241a.454.454,0,0,0,.3-.26.073.073,0,0,0-.056-.074q-.056,0-.241.167a.247.247,0,0,0-.093.111Q229.874,114.664,229.967,114.683Zm-.983.3a.642.642,0,0,0,.39-.334q0-.037-.019-.037-.074-.019-.241.111t-.186.2Q228.928,114.961,228.983,114.979Zm.074.26.037-.056h-.019q.019-.019,0-.019l-.037.056A.016.016,0,0,0,229.058,115.239Zm-.946.3q.148.019.371-.278,0-.019-.037-.019-.353.074-.371.26Q228.093,115.536,228.111,115.536Zm-6.457,2.8a1.286,1.286,0,0,0,.26-.037.212.212,0,0,0,.111-.074q0-.037-.241-.056-.223,0-.241.093Q221.543,118.319,221.654,118.338Zm23.026-25.921q-.037,0-.037-.019l.056-.074.019.037Q244.718,92.436,244.681,92.417Zm-9.222,4.713q-.037,0-.037-.019a1.808,1.808,0,0,1,.612-.52,1.664,1.664,0,0,1,.742-.278q.037,0,.037.019-.019.13-.965.631A1.761,1.761,0,0,1,235.459,97.13Zm-.687.427q.093-.167.2-.167a.016.016,0,0,1,.019.019q0,.019-.083.083A.249.249,0,0,1,234.772,97.557Zm-1.076.779q-.037-.019-.037-.037.241-.315.482-.278.037,0,.037.019l-.037.056Q233.826,98.354,233.7,98.336Zm-2.022,1.243a.016.016,0,0,1-.019-.019q0-.093.779-.687.353-.278.464-.26.037,0,.037.074-.056.2-.612.557A1.923,1.923,0,0,1,231.674,99.579Zm-.575.26h-.019v-.056l.037-.019Q231.117,99.839,231.1,99.839Zm-1.392,1.058a.112.112,0,0,1-.074-.074,1.349,1.349,0,0,1,.362-.371,2.287,2.287,0,0,1,.473-.278,1.018,1.018,0,0,1,.3-.093q.037,0,.037.019-.019.111-.371.39Q229.893,100.915,229.707,100.9Zm-.019,12.562a.135.135,0,0,1,.148-.13.053.053,0,0,1,.019.037l-.074.037v.019Zm-.612.371q.019-.037.037-.037v.019Zm-1.392,1q-.056,0-.056-.019.019-.093.3-.3a2.639,2.639,0,0,1,.761-.371.623.623,0,0,1-.2.25q-.167.139-.343.26a1.111,1.111,0,0,1-.306.158Zm-.631.408a.016.016,0,0,1-.019-.019.1.1,0,0,1,.13-.093q.037,0,.037.056Zm-.557.353q0-.037.056-.074.019-.074.2-.111a.166.166,0,0,1-.093.111.763.763,0,0,0-.111.065Q226.516,115.61,226.5,115.592Zm-7.737,2.579a7.76,7.76,0,0,0,2.969-.427,15.805,15.805,0,0,0,3.878-1.707,3.3,3.3,0,0,1,.724-.371l.019.056a2.382,2.382,0,0,1-.5.464,11.167,11.167,0,0,1-2.319,1.28q-1.188.482-1.206.612,0,.019.037.019a8.967,8.967,0,0,0,3.377-1.559,52.975,52.975,0,0,0,6.29-4.379q5.214-4.026,9.24-7.793.575-.575,1.188-1.095,2.245-2.022,4.342-4.175,1.243-1.317,2.523-2.579a6.944,6.944,0,0,0,1.095-1.28,2.765,2.765,0,0,1,.5-.455,5.109,5.109,0,0,0,.8-.807q.408-.5.909-1.021a8.637,8.637,0,0,0,.668-.751,9.592,9.592,0,0,1,.742-.826,2.768,2.768,0,0,0,.649-.779,2.134,2.134,0,0,1,.482-.668,1.223,1.223,0,0,1,.167-.046.583.583,0,0,1,.093-.009q.037,0,.093-.2.037-.26-.056-.278a2.237,2.237,0,0,0-1.076.223,7.236,7.236,0,0,1-1.41.315,21.741,21.741,0,0,0-5.622,1.837,8.634,8.634,0,0,1-2.264.724.265.265,0,0,1-.167-.065.312.312,0,0,1-.056-.121.088.088,0,0,0-.093-.074,2.918,2.918,0,0,0-.872.631,5.313,5.313,0,0,1-.928.687,2.071,2.071,0,0,1-1.039.371.279.279,0,0,1-.25-.176.72.72,0,0,0-.1-.195q-.186-.019-.538.557a2.266,2.266,0,0,1-.724.649q-.074.037-1.021.482a3.865,3.865,0,0,1-1.132.427q0-.037.278-.223a4.069,4.069,0,0,0,.909-.779.016.016,0,0,0-.019-.019,5.966,5.966,0,0,0-1.911.928q-.742.427-1.521.835a26.757,26.757,0,0,0-4.175,2.653,4.236,4.236,0,0,1-.612.371,13.823,13.823,0,0,0-1.28.891,7.034,7.034,0,0,0-1.392,1.225,1.684,1.684,0,0,0,.306-.121.8.8,0,0,1,.38-.1.033.033,0,0,1,.037.037q-.037.371-3.9,3.377a29.756,29.756,0,0,0-4.416,4.583,15,15,0,0,0-.928,1.262q-.612.891-1.169,1.6a7.018,7.018,0,0,0-1.614,3.377,4.2,4.2,0,0,0,.111,1.559q.334.816.826.928A6.734,6.734,0,0,0,218.76,118.171Zm.612,1.948a4.5,4.5,0,0,1-2.227-1.113,5.169,5.169,0,0,1-1.447-1.818,4.471,4.471,0,0,1-.315-2.078,7.091,7.091,0,0,1,1.28-2.876l.612-1.058a5.2,5.2,0,0,1,.909-1.113,3.857,3.857,0,0,0,1.039-1.354,2.607,2.607,0,0,1,.668-.965,5.88,5.88,0,0,0,.983-1.076,12.558,12.558,0,0,1,1.113-1.15,2.377,2.377,0,0,1,.983-.668.517.517,0,0,0,.371-.39,6.512,6.512,0,0,1,2.282-2.245,11.554,11.554,0,0,0,1.132-.835,30.783,30.783,0,0,1,3.006-2.264,2.655,2.655,0,0,1,1.169-.575,18.338,18.338,0,0,1-2.5,1.911,8.168,8.168,0,0,0-.705.5q-.019,0-.724.5-1.206.928-1.28,1.262a.016.016,0,0,0,.019.019,3.61,3.61,0,0,0,.909-.566,8.189,8.189,0,0,0,1-.789,62.155,62.155,0,0,1,6.977-4.657,69.3,69.3,0,0,1,16.662-7q1.967-.52,3.952-.891a3.222,3.222,0,0,0,1.1-.343,4.27,4.27,0,0,0,.937-1.011q2.486-3.154,4.546-6.327l.5-.742a42.918,42.918,0,0,0,3.488-5.975q.408-.835.8-1.577A19.679,19.679,0,0,0,268,69.725q.315-1.021.742-.965a1.438,1.438,0,0,1,.724.39,1.516,1.516,0,0,1,.445.612,2.234,2.234,0,0,1,.037.946,11.429,11.429,0,0,1-1.781,4.045l-.594,1.039a71.783,71.783,0,0,1-7.106,10.743,3.579,3.579,0,0,0-.946,1.447q-.074.538.761.668.445.056.891.083t.983.083a22.2,22.2,0,0,1,2.561.668q.705.3.687.52-.019.13-.13.111a.181.181,0,0,1-.121-.065q-.065-.065-.083-.065a.731.731,0,0,0-.3-.111h-.315a.769.769,0,0,1-.306-.176,8.738,8.738,0,0,0-2.2-.4q-.668-.148-1.262-.223a7.147,7.147,0,0,0-1.132-.056,2.5,2.5,0,0,0-1.781.965q-1.169,1.466-3.414,3.934A50.321,50.321,0,0,1,250.433,98a41.427,41.427,0,0,0-3.229,3.173,14.988,14.988,0,0,1-1.726,1.707q-.594.5-1.15,1.021-.928.891-1.911,1.688a5.329,5.329,0,0,0-.705.687,5.288,5.288,0,0,1-.918.854,6.67,6.67,0,0,0-.956.854q-.39.353-.8.705-3.321,2.635-6.587,5.307-1.076.854-2.653,1.93l-.705.575a8.328,8.328,0,0,1-1.354.918,11.82,11.82,0,0,0-1.187.714,12.494,12.494,0,0,1-4.249,1.818A8.646,8.646,0,0,1,219.372,120.119Zm108.3-48.409h-.037l.019-.037Zm-.612.52a.033.033,0,0,1-.037-.037q0-.093.158-.195a.621.621,0,0,1,.195-.1l.019.056a.186.186,0,0,1-.056.1.674.674,0,0,1-.139.121A.271.271,0,0,1,327.063,72.229Zm-5.4,3.785h-.074a.425.425,0,0,1,.037-.13.334.334,0,0,1,.26-.13q.056,0,.056.037Q321.942,75.885,321.664,76.015Zm-.928.612q-.056,0-.056-.019,0-.093.278-.371a1.765,1.765,0,0,1,.26-.148q.074,0,.074.037a.372.372,0,0,1-.111.2A.717.717,0,0,1,320.736,76.627Zm-1.039.742q-.037,0-.037-.019,0-.148.371-.39l.111-.037a.279.279,0,0,1-.1.176q-.1.1-.1.121A.62.62,0,0,1,319.7,77.369Zm-1.317.909h-.037a.14.14,0,0,1,.037-.083.1.1,0,0,1,.074-.046q.019,0,.019.037T318.38,78.278ZM316.8,79.392q-.074,0-.074-.056V79.3a2.124,2.124,0,0,1,.631-.538,1.008,1.008,0,0,1,.334-.148l.019.019q0,.148-.705.649A.684.684,0,0,1,316.8,79.392Zm-39.354-4.917a9.281,9.281,0,0,0,1.373-.8q2.449-1.6,5.566-3.358,1.521-.8,1.521-1.15,0-.26-.408-.26-1.169,0-4.88,2.82-3.21,2.449-3.21,2.728Q277.411,74.475,277.448,74.475Zm19.464,6.364q.019,0,.019-.037l-.019-.037a.059.059,0,0,0-.037.056Q296.875,80.839,296.912,80.839Zm15.419,1.911a2.868,2.868,0,0,0,1.188-.631,1.672,1.672,0,0,0,.408-.39.049.049,0,0,0-.056-.056,2.885,2.885,0,0,0-1.058.557q-.575.408-.575.482Q312.238,82.75,312.331,82.75Zm-1.058.687a.16.16,0,0,0,.111-.056q.056-.056.056-.074t-.037-.019q-.037.019-.083.046a.359.359,0,0,0-.065.046.053.053,0,0,0-.019.037Q311.236,83.437,311.273,83.437Zm-.52.315-.037-.037-.019.019Q310.7,83.752,310.754,83.752Zm-.724.353q.056,0,.056-.037a.038.038,0,0,0-.009-.028.187.187,0,0,0-.083-.009q-.056.019-.056.037Q309.938,84.1,310.03,84.1Zm-10.3,6.624a4.965,4.965,0,0,1-1.132-.13,4.41,4.41,0,0,1-2.616-2,5.777,5.777,0,0,1-.816-2.895,8.454,8.454,0,0,1,1.243-4.156,31.782,31.782,0,0,1,2.6-3.841q3.952-4.806,7-8.962a15.356,15.356,0,0,0,2.078-3.414,4.65,4.65,0,0,0,.445-1.744q-.13-1.058-1.54-1.521a1.649,1.649,0,0,0-.52-.093,1.287,1.287,0,0,0-.909.39q-.13.167-.742,1.132a56.2,56.2,0,0,1-6.828,8.108,71.587,71.587,0,0,1-5.975,5.418q-1.707,1.5-2.616,2.227a8.385,8.385,0,0,1-1.744,1.113,4.118,4.118,0,0,1-1.763.464,2.459,2.459,0,0,1-1.429-.464,3.187,3.187,0,0,1-1.187-2.579,6.759,6.759,0,0,1,1.8-3.767l.761-1.039a13.418,13.418,0,0,0,1.744-2.561q0-.2-.223-.2a3.075,3.075,0,0,0-1.058.315,12.785,12.785,0,0,0-1.651.872q-.761.5-2.1,1.484-2.523,1.688-4.342,3.117-1.855,1.392-2.857,2.041a4.4,4.4,0,0,1-2.152.854q-.891,0-1.132-1.113v-.093q0-.835,1.429-2.06l.371-.315q3.21-3.173,6.7-6.049A13.163,13.163,0,0,1,284,67.22a3.665,3.665,0,0,1,1.243-.26,2.193,2.193,0,0,1,1.6.816q.649.668,1.021.668a1.416,1.416,0,0,0,.557-.167,3.236,3.236,0,0,1,1.5-.408,1.034,1.034,0,0,1,.5.111,2.386,2.386,0,0,1,.687.742,1,1,0,0,1,.223.538q0,.3-.52.705a20.666,20.666,0,0,0-2.431,2.746,34.572,34.572,0,0,0-2.783,4.082,4.539,4.539,0,0,0-.724,1.874.443.443,0,0,0,.5.5,4.675,4.675,0,0,0,1.8-.705,42.2,42.2,0,0,0,5.808-4.249q1.02-.872,2.06-1.688.928-.761,2.041-1.818a42.815,42.815,0,0,0,7-8.034,2.166,2.166,0,0,0,.408-.946q0-.2-.371-.371a2.219,2.219,0,0,1-.891-.8.765.765,0,0,1-.111-.353.286.286,0,0,1,.167-.26,1.335,1.335,0,0,1,.668-.148,2.7,2.7,0,0,1,1.41.427,3.2,3.2,0,0,0,.8.39,10.67,10.67,0,0,1,2.384,1.113,4.136,4.136,0,0,1,1.624,2.022,3.415,3.415,0,0,1,.074.705q0,2.152-2.561,5.4-1.225,1.559-2.356,2.82-1.874,2.134-5.177,6.476a11.336,11.336,0,0,0-1.429,1.948q-.186.353-.5,1.132a12.484,12.484,0,0,0-1.336,4.62q0,1.874,1.781,1.874a8.132,8.132,0,0,0,1.688-.26,23.414,23.414,0,0,0,3.841-1.633q1.169-.612,4.917-2.783,1.354-.816,2.69-1.763a27.59,27.59,0,0,1,3.748-2.338,2.164,2.164,0,0,1,.52-.186.016.016,0,0,1,.019.019,3.871,3.871,0,0,1-.779.687q-.891.705-.891.816,0,.019.037.019a32.834,32.834,0,0,0,4.824-3.154q.26-.13,2.8-2.078.909-.724,1.855-1.429,1.447-1.076,2.82-2.264a.355.355,0,0,1,.148-.093q.019,0,.019.037a.511.511,0,0,1-.093.2,12.232,12.232,0,0,1-2.319,2.152,12.157,12.157,0,0,0-1.911,1.651,9.054,9.054,0,0,1-1.818,1.5q-.668.445-2.356,1.818a86.147,86.147,0,0,1-8.554,5.938q-1.818,1.15-3.6,2.319a18.91,18.91,0,0,1-4.713,2.5A6.672,6.672,0,0,1,299.732,90.729Z" transform="translate(0 -14.58)" fill="none" stroke="#7c5b01" stroke-width="1"/>
</svg>
