<svg xmlns="http://www.w3.org/2000/svg" width="436.798" height="68.117" viewBox="0 0 436.798 68.117">
  <path id="Path_1" data-name="Path 1" d="M142.722-48.438a8.61,8.61,0,0,0-1.782-.445q-.891-.122-1.782-.284-2.106-.162-5.184-.243t-6.723-.041q-3.645.041-7.614.081t-7.857.121q-7.857.162-15.512.567t-15.511.81q-7.695.486-15.309,1.053T50.22-45.36q-7.7.891-15.228,2.106T19.845-40.419q-3.888.891-7.614,1.863T4.7-36.369q-3.645,1.134-7.371,2.552a53.092,53.092,0,0,0-6.8,3.118q-.4.243-1.175.688a13.014,13.014,0,0,0-1.539,1.053,9.746,9.746,0,0,0-1.417,1.377,4.66,4.66,0,0,0-.891,1.5,1.876,1.876,0,0,0,.2,1.58,5.127,5.127,0,0,0,1.175,1.256,6.844,6.844,0,0,0,1.62.931q.891.364,1.539.608a34.483,34.483,0,0,0,7.371,1.944q3.807.567,7.614,1.053,7.614.972,15.106,1.58t15.107,1.58q1.863.162,3.766.445t3.766.689q1.863.324,3.686.769a18.26,18.26,0,0,1,3.524,1.255q.729.324,1.458.729a5.813,5.813,0,0,1,1.3.972,7.146,7.146,0,0,1,.77.972,4.311,4.311,0,0,1,.607,1.863q1.134-1.215,2.106-2.268.891-.891,1.62-1.782t1.134-1.3q5.346-5.832,10.652-11.583t10.651-11.5q.648-.729,1.7-1.822L84.078-40.3q1.053-1.093,1.863-1.944t.972-1.012l.688-.688q.284-.283.688.04t0,.891a5.661,5.661,0,0,1-.526.607l-.607.608q-2.673,2.916-5.387,5.751t-5.386,5.67q-5.346,5.751-10.57,11.462T55.4-7.371q-.405.405-.688.729t-.608.729a3.589,3.589,0,0,0-.486.77,7.152,7.152,0,0,1-.405.77,15.6,15.6,0,0,1-.85,1.5q-.446.689-1.013,1.418Q50.22,0,48.924,1.377T46.251,4.131q-.648.729-1.377,1.418T43.416,6.966L42.2,8.181a8.029,8.029,0,0,0-.567.648,1.255,1.255,0,0,1-.729.486.6.6,0,0,1-.648-.243.58.58,0,0,1-.081-.648q.243-.324.729-.931t1.053-1.255q.567-.648,1.094-1.256T43.9,3.969q1.215-1.458,2.471-2.916t2.47-2.835l1.3-1.458,1.3-1.458.607-.608a3.552,3.552,0,0,0,.527-.688,2.438,2.438,0,0,0,.324-1.782,3.1,3.1,0,0,0-1.66-2.632A15.958,15.958,0,0,0,48.2-11.826a25.2,25.2,0,0,0-3.564-1.012q-1.782-.364-3.645-.689a146.587,146.587,0,0,0-15.269-1.944q-7.655-.567-15.269-1.458-3.888-.4-7.614-.851T-4.7-19.035q-1.863-.4-3.686-.891a20.41,20.41,0,0,1-3.523-1.3q-.648-.324-1.418-.769a5.761,5.761,0,0,1-1.337-1.053,4.642,4.642,0,0,1-.891-1.377,2.869,2.869,0,0,1-.162-1.661,5.323,5.323,0,0,1,1.782-2.875,26.139,26.139,0,0,1,2.754-2.066,28.85,28.85,0,0,1,3.321-1.863q1.7-.81,3.483-1.539,3.564-1.458,7.209-2.633t7.29-2.146q7.614-2.106,15.188-3.564t15.35-2.592q7.533-1.134,15.066-1.9t15.147-1.174q7.776-.405,15.471-.85t15.552-.77q7.857-.324,15.674-.527t15.674-.04q1.863,0,3.726.081t3.726.324q.648.162,1.62.364a2.366,2.366,0,0,1,1.377.688,1.349,1.349,0,0,1,.2.608.705.705,0,0,1-.2.608q-.324.324-.567.081A2.163,2.163,0,0,1,142.722-48.438ZM84.807-23.571a10.606,10.606,0,0,1,.729,1.174q.324.608.567,1.174a5.569,5.569,0,0,1,.729,2.592,5.905,5.905,0,0,1-.486,2.349,9.282,9.282,0,0,1-1.3,2.146q-.81,1.013-1.62,1.984-1.62,1.863-3.28,3.686T76.869-4.779q-.324.405-.972,1.175T74.56-2.025A16.731,16.731,0,0,0,73.386-.486,2.365,2.365,0,0,0,72.9.567,13.843,13.843,0,0,0,74.682,0,8.046,8.046,0,0,0,76.3-.891q2.592-1.62,4.7-3.24,3.321-2.349,6.521-4.7t6.521-4.7q3.4-2.511,6.763-5.022t6.764-5.022a5.714,5.714,0,0,1,.567-.4l.486-.324q1.053.324.608.81a7.951,7.951,0,0,1-1.094.972q-6.318,4.779-12.636,9.4T82.782-3.888Q81.4-3,80.149-2.066T77.517-.243a13.333,13.333,0,0,1-2.39,1.3A7.791,7.791,0,0,1,72.9,1.7a.967.967,0,0,1-1.012-.365A1.354,1.354,0,0,1,71.766.243a5.16,5.16,0,0,1,1.215-2.349q1.053-1.3,1.944-2.268,1.7-1.863,3.362-3.807t3.361-3.807q.729-.81,1.579-1.782a13.814,13.814,0,0,0,1.458-1.985,7,7,0,0,0,.851-2.146,3.679,3.679,0,0,0-.243-2.268q-.324-.648-.648-1.256T84-22.68a18.19,18.19,0,0,1-1.134-2.147,10.954,10.954,0,0,1-.729-2.308,9.668,9.668,0,0,1-.2-2.916,8.217,8.217,0,0,1,.77-2.835,9.669,9.669,0,0,1,4.131-4.253,18.038,18.038,0,0,1,5.589-1.984q2.43-.405,3.442.324a3.094,3.094,0,0,1,1.256,1.539,3.8,3.8,0,0,1-.486,3.159,18.431,18.431,0,0,1-2.511,3.361,31.088,31.088,0,0,1-3.24,3.038q-1.7,1.377-2.754,2.106a10.713,10.713,0,0,1-1.742,1.134Q85.455-23.976,84.807-23.571Zm8.91-14.5a7.914,7.914,0,0,0-1.66.2,11.069,11.069,0,0,0-1.9.608A17.417,17.417,0,0,0,85.9-34.951a6.815,6.815,0,0,0-2.551,3.685,7.858,7.858,0,0,0-.081,3.361,14.96,14.96,0,0,0,1.053,3.28q.972-.567,1.782-1.094t1.539-1.053q.729-.526,1.539-1.175t1.782-1.539q1.458-1.377,2.956-3a8.968,8.968,0,0,0,2.066-3.483,1.839,1.839,0,0,0-.324-1.458A2.041,2.041,0,0,0,93.717-38.07Zm8.829,23a4.084,4.084,0,0,0,1.62-.446,14.5,14.5,0,0,0,1.62-.851q2.106-1.134,4.253-2.349t4.333-2.43q.972-.567,1.944-1.174t1.782-1.013q.891-.486,1.7-.972.81.162.688.608t-.284.527q-.567.324-1.5.891t-2.957,1.7l-8.991,5.1q-.729.405-1.985,1.013a5.23,5.23,0,0,1-2.227.608,1.17,1.17,0,0,1-.972-.405,1.156,1.156,0,0,1-.162-1.053,3.928,3.928,0,0,1,.284-.85,8.438,8.438,0,0,1,.445-.851,21.494,21.494,0,0,1,1.377-1.985q.729-.931,1.539-1.822,1.053-1.134,2.187-2.187l2.268-2.106a5.567,5.567,0,0,0,.527-.405q.283-.243.607.081a.506.506,0,0,1,0,.81q-.162.162-.4.365t-.405.365q-1.377,1.3-2.673,2.592t-2.43,2.673l-1.7,2.43a1.357,1.357,0,0,0-.284.486A5.964,5.964,0,0,0,102.546-15.066ZM115.1-32.157q.648-.162.648.486,0,.405-.162.486l-.324.162q-.486.162-.648-.243Q114.372-31.995,115.1-32.157Zm5.346,8.91q1.782-1.053,3.766-2.025A7.052,7.052,0,0,1,128.223-26a1.628,1.628,0,0,1,1.3.81,1.737,1.737,0,0,1-.081,1.539,10.746,10.746,0,0,1-2.349,2.592,31,31,0,0,1-5.1,3.321q1.215-.405,3.362-1.013t3.847-1.255q3.078-1.134,6.035-2.228t6.035-2.066q.729.162.689.608t-.284.527q-3,.891-5.872,2.025t-5.872,2.187a81.161,81.161,0,0,1-11.826,3.4,1.189,1.189,0,0,0-.446.081q-.2.081-.365.162-1.62.81-3.321,1.5a22.644,22.644,0,0,1-3.483,1.094,2.866,2.866,0,0,0-1.3.81q-3.645,3.807-7.169,7.533T95.013,3.24a14,14,0,0,0-1.5,1.741A19.166,19.166,0,0,1,92.1,6.723q-.648.729-.972.486-.486-.4-.243-.81t.4-.648q.729-.891,1.418-1.7t1.5-1.7l13.608-14.58a2.663,2.663,0,0,0-.648-.081,3.754,3.754,0,0,1-.729-.081q-1.053-.162-.891-1.053a1.068,1.068,0,0,1,.648-.931,6.773,6.773,0,0,1,1.539-.608,10.42,10.42,0,0,1,1.7-.324q.81-.081,1.215-.162a1.2,1.2,0,0,0,.567-.324,3.219,3.219,0,0,0,.4-.486q1.782-1.944,4.009-4.09t4.253-4.091l1.66-1.66,1.66-1.661q.567-.486.891-.162a.591.591,0,0,1,0,.891q-1.053,1.134-1.944,2.025T120.447-23.247Zm-7.371,7.371q.081,0,1.174-.2t1.823-.365q.486-.081.931-.162a3.491,3.491,0,0,0,.932-.324q.81-.486,1.62-.891t1.62-.891q1.377-.81,2.714-1.66t2.632-1.823q.486-.4,1.134-.972a2.481,2.481,0,0,0,.81-1.134q.324-.648-.891-.567a11.588,11.588,0,0,0-3.848,1.134,28.076,28.076,0,0,0-4.05,2.349,45.3,45.3,0,0,0-3.726,2.875Q114.21-17.01,113.076-15.876Zm-5.994,2.43h1.013a4.329,4.329,0,0,0,.85-.081q.081,0,.567-.486A7.94,7.94,0,0,0,107.082-13.446Zm47.547-25.272H139.4q-.729,0-2.187.041t-3.037.041q-1.58,0-2.957-.041t-1.863-.041q-.486,0-.567-.2a1,1,0,0,1-.081-.364q0-.486.648-.486h5.508q3.4-.081,6.764-.081t6.764-.081h7.452l9.234-9.234q.891-.891,1.256-1.337t.77-.85q.567-.405.81,0a.506.506,0,0,1,0,.81q-.729.81-1.458,1.579t-1.539,1.58q-1.3,1.377-2.592,2.632T159.732-42.2q-.486.486-1.256,1.3t-.931.972q.081,0,2.146.081t4.7.162q2.632.081,5.143.162t3.564.081q.81.081,2.147.2a6.773,6.773,0,0,1,2.065.445q.486.324.243.729-.162.486-.648.243-.891-.162-1.863-.243t-1.863-.162q-4.05-.243-8.383-.324t-8.383-.162q-.648.648-2.025,2.106t-3.078,3.24q-1.7,1.782-3.483,3.685t-3.159,3.443q-4.617,5.1-9.193,10.125T126.36-5.913q-1.7,1.944-3.362,3.888t-3.28,4.05a4.419,4.419,0,0,1-.365.324.464.464,0,0,1-.526,0,.387.387,0,0,1-.2-.526,1.351,1.351,0,0,1,.283-.527,75.325,75.325,0,0,1,4.82-6.075q2.632-3,5.225-5.913,5.508-6.156,11.016-12.19t11.178-12.11q.324-.405.891-1.013t1.134-1.174q.567-.567.972-1.013T154.629-38.718Zm-9.558,23.652a4.084,4.084,0,0,0,1.62-.446,14.5,14.5,0,0,0,1.62-.851q2.106-1.134,4.253-2.349t4.334-2.43q.972-.567,1.944-1.174t1.782-1.013q.891-.486,1.7-.972.81.162.688.608t-.283.527q-.567.324-1.5.891t-2.956,1.7l-8.991,5.1q-.729.405-1.984,1.013a5.23,5.23,0,0,1-2.227.608,1.17,1.17,0,0,1-.972-.405,1.156,1.156,0,0,1-.162-1.053,3.928,3.928,0,0,1,.283-.85,8.435,8.435,0,0,1,.446-.851,21.491,21.491,0,0,1,1.377-1.985q.729-.931,1.539-1.822,1.053-1.134,2.187-2.187l2.268-2.106a5.566,5.566,0,0,0,.526-.405q.284-.243.607.081a.506.506,0,0,1,0,.81q-.162.162-.4.365t-.4.365q-1.377,1.3-2.673,2.592t-2.43,2.673l-1.7,2.43a1.357,1.357,0,0,0-.283.486A5.964,5.964,0,0,0,145.071-15.066Zm12.555-17.091q.648-.162.648.486,0,.405-.162.486l-.324.162q-.486.162-.648-.243Q156.9-31.995,157.626-32.157ZM294.678-50.463a3.407,3.407,0,0,0-1.822.243q-1.174.405-1.741.648-.972.405-1.944.891t-1.863.972q-2.673,1.458-5.225,3t-5.062,3.159Q272-38.475,267.3-35.235q-3.807,2.592-7.411,5.225t-7.249,5.386q-2.592,1.863-5.022,3.807t-4.86,3.969q-1.944,1.62-3.888,3.2t-3.807,3.2q-1.053.81-2.025,1.58a11.262,11.262,0,0,1-1.944,1.255,1.7,1.7,0,0,1-.891.243,1.026,1.026,0,0,1-.608-.2.646.646,0,0,1-.2-.688,6.789,6.789,0,0,1,.688-1.7q.526-.972.932-1.62.972-1.539,2.025-3t2.187-2.916q3.483-4.374,6.885-8.343,1.782-2.106,3.523-4.131t3.6-4.05l4.131-4.617q2.511-2.592,4.941-5.427.324-.405.85-.972t1.013-1.093q.486-.526.891-1.013a4.678,4.678,0,0,0,.486-.648,7.336,7.336,0,0,0-2.025.77q-1.62.77-3.766,1.9t-4.374,2.349q-2.228,1.215-3.766,2.106-3.078,1.782-6.035,3.523t-5.953,3.6L228.1-28.917l-4.7,3.078q-2.349,1.539-4.7,3.159-3.078,2.106-6.075,4.253t-5.994,4.333q-1.944,1.377-3.888,2.835t-3.888,2.835q-.567.4-1.417,1.053A17.9,17.9,0,0,1,195.7-6.2q-.891.527-1.66.931a1.97,1.97,0,0,1-1.174.324.763.763,0,0,1-.729-.729,1.263,1.263,0,0,1,.122-.77,8.015,8.015,0,0,1,.526-1.093,9.621,9.621,0,0,1,.729-1.094q.405-.527.648-.851.972-1.377,2.025-2.714t2.187-2.714q1.215-1.377,2.43-2.794t2.511-2.795q1.458-1.62,2.875-3.2t2.876-3.2q1.377-1.539,2.714-3t2.714-3q2.349-2.511,4.7-5.184,1.134-1.215,2.187-2.389t2.106-2.389q2.106-2.349,3.807-4.617.81-1.134,1.337-2.025a3.356,3.356,0,0,0,.526-1.7,1.2,1.2,0,0,0-.567-1.134,3.887,3.887,0,0,0-1.782-.486,18.225,18.225,0,0,0-2.43,0q-1.3.081-2.592.283t-2.349.446q-3.483.648-6.885,1.539t-6.8,1.863q-2.025.567-3.969,1.215t-3.969,1.3q-3.078,1.053-6.115,2.228t-6.116,2.389l-7.29,3.159q-3.078,1.377-5.994,2.835t-5.751,2.916q-.324.162-.648.364t-.567-.2q-.486-.486.284-.891t1.012-.567q3.807-1.944,7.614-3.807,2.349-1.134,4.779-2.228t4.86-2.146q3.078-1.3,6.2-2.471t6.2-2.309q2.187-.81,4.334-1.5t4.414-1.336q2.349-.648,4.7-1.256t4.7-1.256q1.215-.324,2.471-.567t2.551-.486q2.349-.4,4.739-.648a12.027,12.027,0,0,1,4.252.243,3.918,3.918,0,0,1,1.337.851,1.811,1.811,0,0,1,.526,1.336,3.689,3.689,0,0,1-.324,1.822,14.556,14.556,0,0,1-1.012,1.9,18.344,18.344,0,0,1-1.3,1.822q-.688.85-1.255,1.579-1.215,1.458-2.471,2.875t-2.551,2.795q-1.377,1.539-2.754,3.038t-2.754,3.037q-1.377,1.539-2.714,3t-2.714,3q-1.863,2.025-3.6,3.969t-3.523,3.969q-2.592,2.835-4.86,5.589-.972,1.215-1.9,2.389t-1.823,2.471q-.243.4-.688,1.053a9.24,9.24,0,0,0-.607.972,5.072,5.072,0,0,1,.688-.364,8.985,8.985,0,0,0,1.174-.689q.972-.648,1.458-1.013t1.377-1.012l8.505-6.318q2.187-1.62,4.374-3.159l4.374-3.078q2.025-1.377,3.969-2.673t3.969-2.673q2.592-1.7,5.184-3.321l5.184-3.24q2.43-1.458,4.819-2.916t4.82-2.835q4.212-2.43,8.222-4.658t8.383-4.333q.567-.243,1.215-.486a3.3,3.3,0,0,1,1.134-.243q.972,0,.81.972a6.427,6.427,0,0,1-1.012,1.742q-.77,1.013-1.661,2.065t-1.863,2.025q-.972.972-1.62,1.7-1.377,1.62-2.835,3.118t-2.835,3.037q-1.134,1.377-2.349,2.673t-2.349,2.673q-1.782,2.106-3.523,4.131T239.6-20.979q-1.134,1.377-2.228,2.794t-2.227,2.795q-.891,1.134-1.7,2.309t-1.539,2.39q-.243.4-.526.891t-.527.891a5.067,5.067,0,0,0,1.094-.648q.526-.4,1.012-.81,1.3-1.053,2.551-2.066t2.471-2.066L243-18.549q2.511-2.025,5.1-4.05,2.349-1.863,4.7-3.645t4.7-3.483q2.106-1.62,4.253-3.118t4.333-3.038q2.754-1.863,5.467-3.645t5.548-3.483q2.268-1.458,4.536-2.794t4.617-2.633q1.215-.729,2.47-1.337t2.552-1.174q.486-.162,1.62-.527a3.535,3.535,0,0,1,2.025-.121q.891.324.891,1.053a6.836,6.836,0,0,1-1.053,3.24q-1.053,1.863-1.944,3.24-1.134,1.863-2.349,3.645t-2.349,3.564q-2.43,3.645-4.739,7.29t-4.5,7.452q-1.863,3.078-3.645,6.2t-3.483,6.2q-1.62,2.754-3.078,5.427t-2.835,5.508q-.81,1.458-1.539,3L262.845,7.29q-.486,1.134-.85,2.187a11.748,11.748,0,0,0-.527,2.187.633.633,0,0,0,.081.527.468.468,0,0,1,0,.526.429.429,0,0,1-.365.365.733.733,0,0,1-.527-.122,1.935,1.935,0,0,1-.4-.932,1.757,1.757,0,0,1,.081-.931,17.413,17.413,0,0,1,.972-3.2q.648-1.58,1.3-2.957Q263.817,2.43,265.073,0T267.7-4.86q.891-1.62,1.782-3.321T271.35-11.5q1.134-2.025,2.268-3.969t2.349-3.969q1.134-2.106,2.39-4.131t2.47-4.05q1.62-2.835,3.4-5.549t3.564-5.386q1.053-1.539,2.065-3.078t1.984-3.078a36.667,36.667,0,0,0,1.944-3.24,12.443,12.443,0,0,0,.608-1.215A2.4,2.4,0,0,0,294.678-50.463Zm2.43,27.378q-.972.567-2.471,1.377t-3.037,1.7q-.324.162-.932.486t-1.3.608a12.521,12.521,0,0,1-1.418.486,4.91,4.91,0,0,1-1.3.2,1.131,1.131,0,0,1-.891-.365.932.932,0,0,1-.162-.932,4.371,4.371,0,0,1,.567-1.377q.4-.648.648-.972a14.958,14.958,0,0,1,5.022-3.888,5.1,5.1,0,0,1,1.944-.608,3.634,3.634,0,0,1,1.3.122,1.378,1.378,0,0,1,.891,1.458,2.571,2.571,0,0,1-.162.729.917.917,0,0,1-.324.324q-.243.162-.4,0-.4-.162-.324-.445a2.2,2.2,0,0,0,.081-.608.383.383,0,0,0-.324-.405,1.906,1.906,0,0,0-.931.081q-.527.162-1.174.405a12.655,12.655,0,0,0-4.7,3.564,4.357,4.357,0,0,0-.567.77,4.373,4.373,0,0,0-.486,1.094,7.39,7.39,0,0,0,1.944-.567q.648-.324,1.255-.607t1.255-.608q2.025-1.053,3.969-2.228T298.89-25.6q.324-.162.608-.324t.607-.324a.573.573,0,0,1,.81.243.736.736,0,0,1,0,.81l-.567.567q-.729.81-1.458,1.539t-1.458,1.539q-.891.972-1.7,2.025a19.243,19.243,0,0,0-1.458,2.187A11.064,11.064,0,0,0,293.544-16a8.208,8.208,0,0,0-.567,1.5.358.358,0,0,0,.4.4,4.013,4.013,0,0,0,1.215-.4q.648-.324,1.053-.567,1.377-.891,2.552-1.62t2.47-1.62q1.944-1.3,4.212-2.754t4.212-2.754a.394.394,0,0,0,.2-.081,2.648,2.648,0,0,1,.284-.162,1.269,1.269,0,0,0,.324-.243,1.226,1.226,0,0,1,.607.486q.2.324-.2.648a1.542,1.542,0,0,1-.4.284,7.66,7.66,0,0,0-.729.445q-2.835,1.863-5.67,3.685t-5.67,3.686a7.985,7.985,0,0,1-1.053.648q-.486.243-1.134.648a6.557,6.557,0,0,1-1.053.486,5.7,5.7,0,0,1-1.3.324,1.305,1.305,0,0,1-1.174-.4,1.282,1.282,0,0,1-.284-1.215,6.125,6.125,0,0,1,.81-2.39q.648-1.093,1.053-1.741Q295.164-20.736,297.108-23.085Zm7.938,5.589q1.134-.81,2.754-1.9t3.24-2.146q1.62-1.053,3.038-1.823a9.368,9.368,0,0,1,2.146-.931.729.729,0,0,1,.85.2.862.862,0,0,1,.122.851,8.155,8.155,0,0,1-.729,1.579q-.567,1.013-.972,1.9-.162.324-.567,1.215t-.567,1.3a5.229,5.229,0,0,0,1.7-.445q1.134-.445,1.944-.77,1.863-.891,3.564-1.823t3.4-1.984q.567-.324,1.134-.689t1.053-.689l1.134-.648q.891.081.729.567a1.758,1.758,0,0,1-.324.648q-.891.486-1.417.81t-1.013.648q-.486.324-1.053.648t-1.377.81q-1.134.648-2.471,1.377t-2.592,1.336a22.246,22.246,0,0,1-2.43,1.013,6.3,6.3,0,0,1-1.985.4,1.057,1.057,0,0,1-1.053-.365,1.257,1.257,0,0,1-.162-1.093,15.418,15.418,0,0,1,1.174-2.835q.77-1.458,1.418-2.592l-.445.243a10.9,10.9,0,0,0-.972.608q-.526.365-1.134.729l-1.012.608q-2.349,1.377-4.536,2.875t-4.374,3.118q-.4.243-.85.486a.551.551,0,0,1-.77-.162.838.838,0,0,1,.081-1.134q.486-.567.81-.972,1.134-1.3,2.268-2.511t2.349-2.511q1.377-1.458,2.835-2.916l2.916-2.916q.324-.324.729-.688t.729-.2a.576.576,0,0,1,.122.81,5.434,5.434,0,0,1-.608.729q-1.134,1.134-2.146,2.187t-2.066,2.187q-1.134,1.134-2.309,2.43T305.046-17.5Zm19.521-.81q.891-.648,2.025-1.458a21.214,21.214,0,0,1,2.349-1.458q1.215-.648,2.309-1.134a4.708,4.708,0,0,1,1.822-.486q.972,0,.972,1.053a11.938,11.938,0,0,1-.243,1.418,5.828,5.828,0,0,0-.162,1.336.573.573,0,0,0,.648.648,7.777,7.777,0,0,0,2.025-.486q1.458-.486,2.754-1.053,2.592-1.053,4.9-1.944t4.9-1.944q.162-.081.365-.162t.365-.162l.486-.162q.729.162.648.608a.766.766,0,0,1-.567.607q-2.835,1.134-5.467,2.228t-5.467,2.228q-1.215.486-2.633.972a5.834,5.834,0,0,1-2.309.405,1.647,1.647,0,0,1-1.863-1.863,7.187,7.187,0,0,1,.081-1.094,13.533,13.533,0,0,1,.324-1.417,3.607,3.607,0,0,0-.891.324q-.486.243-.891.405a72.284,72.284,0,0,0-7.29,4.617q-.729.486-1.417,1.012T321-14.175a1.8,1.8,0,0,1-.567.243.563.563,0,0,1-.567-.162.494.494,0,0,1-.081-.688,3.984,3.984,0,0,1,.486-.608l3.645-4.131q4.374-4.86,8.748-9.6t8.829-9.6q2.916-3.159,5.953-6.2t6.116-6.034q.648-.648,1.174-1.215t1.174-1.215a.728.728,0,0,1,.729-.081.468.468,0,0,1,.2.486.809.809,0,0,1-.2.486q-.648.648-1.418,1.5t-1.417,1.5q-4.374,4.293-8.667,8.667-2.673,2.835-5.265,5.63t-5.184,5.629q-1.215,1.377-2.714,3t-2.916,3.2q-1.418,1.58-2.592,2.916T324.567-18.306Zm18.873,3.888a6.222,6.222,0,0,1,.931-2.876,19.722,19.722,0,0,1,1.579-2.309q1.215-1.539,2.471-3a29.006,29.006,0,0,1,2.714-2.754,6.171,6.171,0,0,1,.931-.607.57.57,0,0,1,.85.284q.324.567-.324.729a1.876,1.876,0,0,0-.4.243,44.407,44.407,0,0,0-3.523,3.6,32.773,32.773,0,0,0-3.037,4.091,7.632,7.632,0,0,0-.648,1.255,5.581,5.581,0,0,0-.4,1.337q0,.324.243.243a7.183,7.183,0,0,0,3-1.741q1.458-1.337,2.511-2.471a4.37,4.37,0,0,0,.688-.891q.283-.486.608-.972a4.619,4.619,0,0,0,.243-.81q.081-.4-.081-.486a.939.939,0,0,1-.729-.365.633.633,0,0,1-.081-.527q.162-.567.608-.567a2.269,2.269,0,0,1,.85.162,1.4,1.4,0,0,0,.931.041q.689-.122,2.147-.365,1.782-.243,4.05-.567l3.969-.567q.81.162.607.648t-.445.486q-1.215.162-2.754.4l-3.078.486q-1.539.243-2.794.445t-1.823.284a3.5,3.5,0,0,1-.2,1.255,5.991,5.991,0,0,1-.446.932,18.645,18.645,0,0,1-3.483,3.888A21.4,21.4,0,0,1,347-13.892a5.335,5.335,0,0,1-2.106.851,1.124,1.124,0,0,1-1.094-.243A1.253,1.253,0,0,1,343.44-14.418Zm33.453-24.3H361.665q-.729,0-2.187.041t-3.038.041q-1.58,0-2.957-.041t-1.863-.041q-.486,0-.567-.2a1,1,0,0,1-.081-.364q0-.486.648-.486h5.508q3.4-.081,6.763-.081t6.763-.081h7.452l9.234-9.234q.891-.891,1.255-1.337t.77-.85q.567-.405.81,0a.506.506,0,0,1,0,.81q-.729.81-1.458,1.579t-1.539,1.58q-1.3,1.377-2.592,2.632T382-42.2q-.486.486-1.255,1.3t-.931.972q.081,0,2.146.081t4.7.162q2.633.081,5.144.162t3.564.081q.81.081,2.146.2a6.773,6.773,0,0,1,2.066.445q.486.324.243.729-.162.486-.648.243-.891-.162-1.863-.243t-1.863-.162q-4.05-.243-8.384-.324t-8.383-.162q-.648.648-2.025,2.106t-3.078,3.24q-1.7,1.782-3.483,3.685t-3.159,3.443q-4.617,5.1-9.194,10.125T348.624-5.913q-1.7,1.944-3.362,3.888t-3.28,4.05a4.423,4.423,0,0,1-.365.324.464.464,0,0,1-.527,0,.387.387,0,0,1-.2-.526,1.351,1.351,0,0,1,.283-.527,75.325,75.325,0,0,1,4.82-6.075q2.633-3,5.224-5.913,5.508-6.156,11.016-12.19t11.178-12.11q.324-.405.891-1.013t1.134-1.174q.567-.567.972-1.013T376.893-38.718ZM375.03-23.571a10.609,10.609,0,0,1,.729,1.174q.324.608.567,1.174a5.569,5.569,0,0,1,.729,2.592,5.9,5.9,0,0,1-.486,2.349,9.282,9.282,0,0,1-1.3,2.146q-.81,1.013-1.62,1.984-1.62,1.863-3.281,3.686t-3.28,3.686q-.324.405-.972,1.175t-1.336,1.579a16.729,16.729,0,0,0-1.174,1.539,2.364,2.364,0,0,0-.486,1.053A13.844,13.844,0,0,0,364.9,0a8.046,8.046,0,0,0,1.62-.891q2.592-1.62,4.7-3.24,3.321-2.349,6.521-4.7t6.521-4.7q3.4-2.511,6.763-5.022t6.764-5.022a5.711,5.711,0,0,1,.567-.4l.486-.324q1.053.324.608.81a7.95,7.95,0,0,1-1.094.972q-6.318,4.779-12.636,9.4T373.005-3.888q-1.377.891-2.633,1.822T367.74-.243a13.331,13.331,0,0,1-2.389,1.3,7.791,7.791,0,0,1-2.227.648.967.967,0,0,1-1.013-.365,1.354,1.354,0,0,1-.121-1.094A5.16,5.16,0,0,1,363.2-2.106q1.053-1.3,1.944-2.268,1.7-1.863,3.361-3.807t3.362-3.807q.729-.81,1.579-1.782a13.815,13.815,0,0,0,1.458-1.985,7,7,0,0,0,.85-2.146,3.678,3.678,0,0,0-.243-2.268q-.324-.648-.648-1.256t-.648-1.255a18.19,18.19,0,0,1-1.134-2.147,10.955,10.955,0,0,1-.729-2.308,9.667,9.667,0,0,1-.2-2.916,8.216,8.216,0,0,1,.77-2.835,9.669,9.669,0,0,1,4.131-4.253,18.038,18.038,0,0,1,5.589-1.984q2.43-.405,3.443.324a3.1,3.1,0,0,1,1.255,1.539,3.8,3.8,0,0,1-.486,3.159,18.432,18.432,0,0,1-2.511,3.361,31.087,31.087,0,0,1-3.24,3.038q-1.7,1.377-2.754,2.106a10.713,10.713,0,0,1-1.742,1.134Q375.678-23.976,375.03-23.571Zm8.91-14.5a7.914,7.914,0,0,0-1.66.2,11.068,11.068,0,0,0-1.9.608,17.417,17.417,0,0,0-4.253,2.309,6.815,6.815,0,0,0-2.552,3.685,7.858,7.858,0,0,0-.081,3.361,14.961,14.961,0,0,0,1.053,3.28q.972-.567,1.782-1.094t1.539-1.053q.729-.526,1.539-1.175t1.782-1.539q1.458-1.377,2.957-3a8.969,8.969,0,0,0,2.065-3.483,1.839,1.839,0,0,0-.324-1.458A2.041,2.041,0,0,0,383.94-38.07Zm22.6,14.985q-.972.567-2.471,1.377t-3.037,1.7q-.324.162-.932.486t-1.3.608a12.521,12.521,0,0,1-1.418.486,4.91,4.91,0,0,1-1.3.2,1.131,1.131,0,0,1-.891-.365.932.932,0,0,1-.162-.932A4.371,4.371,0,0,1,395.6-20.9q.4-.648.648-.972a14.958,14.958,0,0,1,5.022-3.888,5.1,5.1,0,0,1,1.944-.608,3.634,3.634,0,0,1,1.3.122,1.378,1.378,0,0,1,.891,1.458,2.571,2.571,0,0,1-.162.729.917.917,0,0,1-.324.324q-.243.162-.4,0-.4-.162-.324-.445a2.2,2.2,0,0,0,.081-.608.383.383,0,0,0-.324-.405,1.906,1.906,0,0,0-.931.081q-.527.162-1.174.405a12.655,12.655,0,0,0-4.7,3.564,4.357,4.357,0,0,0-.567.77,4.373,4.373,0,0,0-.486,1.094,7.39,7.39,0,0,0,1.944-.567q.648-.324,1.255-.607t1.255-.608q2.025-1.053,3.969-2.228t3.807-2.308q.324-.162.608-.324t.607-.324a.573.573,0,0,1,.81.243.736.736,0,0,1,0,.81l-.567.567q-.729.81-1.458,1.539t-1.458,1.539q-.891.972-1.7,2.025a19.243,19.243,0,0,0-1.458,2.187A11.064,11.064,0,0,0,402.975-16a8.208,8.208,0,0,0-.567,1.5.358.358,0,0,0,.4.4,4.013,4.013,0,0,0,1.215-.4q.648-.324,1.053-.567,1.377-.891,2.552-1.62t2.47-1.62q1.944-1.3,4.212-2.754t4.212-2.754a.394.394,0,0,0,.2-.081,2.648,2.648,0,0,1,.284-.162,1.269,1.269,0,0,0,.324-.243,1.226,1.226,0,0,1,.607.486q.2.324-.2.648a1.542,1.542,0,0,1-.4.284,7.66,7.66,0,0,0-.729.445q-2.835,1.863-5.67,3.685t-5.67,3.686a7.985,7.985,0,0,1-1.053.648q-.486.243-1.134.648a6.557,6.557,0,0,1-1.053.486,5.7,5.7,0,0,1-1.3.324,1.305,1.305,0,0,1-1.174-.4,1.282,1.282,0,0,1-.284-1.215,6.125,6.125,0,0,1,.81-2.39q.648-1.093,1.053-1.741Q404.6-20.736,406.539-23.085Z" transform="translate(16.268 54.527)" fill="none" stroke="#df9035" stroke-width="1"/>
</svg>
